<svg width="48" height="48" viewBox="0 0 48 48" fill="none" xmlns="http://www.w3.org/2000/svg">
<rect width="48" height="48" rx="24" fill="#FEFEFD"/>
<path d="M33 33H16.6C16.0399 33 15.7599 33 15.546 32.891C15.3578 32.7951 15.2049 32.6422 15.109 32.454C15 32.2401 15 31.9601 15 31.4V15M32 27L28.0811 22.8173C27.9326 22.6588 27.8584 22.5796 27.7688 22.5386C27.6897 22.5024 27.6026 22.4875 27.516 22.4953C27.4179 22.5042 27.3215 22.5542 27.1287 22.6543L23.8713 24.3457C23.6785 24.4458 23.5821 24.4958 23.484 24.5047C23.3974 24.5125 23.3103 24.4976 23.2312 24.4614C23.1416 24.4204 23.0674 24.3412 22.9189 24.1827L19 20" stroke="#284A70" stroke-width="2" stroke-linecap="round" stroke-linejoin="round"/>
</svg>
