<svg width="25" height="24" viewBox="0 0 25 24" fill="none" xmlns="http://www.w3.org/2000/svg">
<path d="M21.5 21H5.1C4.53995 21 4.25992 21 4.04601 20.891C3.85785 20.7951 3.70487 20.6422 3.60899 20.454C3.5 20.2401 3.5 19.9601 3.5 19.4V3M20.5 15L16.5811 10.8173C16.4326 10.6588 16.3584 10.5796 16.2688 10.5386C16.1897 10.5024 16.1026 10.4875 16.016 10.4953C15.9179 10.5042 15.8215 10.5542 15.6287 10.6543L12.3713 12.3457C12.1785 12.4458 12.0821 12.4958 11.984 12.5047C11.8974 12.5125 11.8103 12.4976 11.7312 12.4614C11.6416 12.4204 11.5674 12.3412 11.4189 12.1827L7.5 8" stroke="#3C8B84" stroke-width="2" stroke-linecap="round" stroke-linejoin="round"/>
</svg>
