<svg width="49" height="48" viewBox="0 0 49 48" fill="none" xmlns="http://www.w3.org/2000/svg">
<rect x="0.333008" width="48" height="48" rx="24" fill="#FEFEFD"/>
<path d="M19.833 16.5C19.833 15.1193 20.9523 14 22.333 14C23.7137 14 24.833 15.1193 24.833 16.5V18H25.833C27.2308 18 27.9297 18 28.4811 18.2284C29.2161 18.5328 29.8002 19.1169 30.1046 19.8519C30.333 20.4033 30.333 21.1022 30.333 22.5H31.833C33.2137 22.5 34.333 23.6193 34.333 25C34.333 26.3807 33.2137 27.5 31.833 27.5H30.333V29.2C30.333 30.8802 30.333 31.7202 30.006 32.362C29.7184 32.9265 29.2595 33.3854 28.695 33.673C28.0532 34 27.2132 34 25.533 34H24.833V32.25C24.833 31.0074 23.8256 30 22.583 30C21.3404 30 20.333 31.0074 20.333 32.25V34H19.133C17.4529 34 16.6128 34 15.971 33.673C15.4066 33.3854 14.9476 32.9265 14.66 32.362C14.333 31.7202 14.333 30.8802 14.333 29.2V27.5H15.833C17.2137 27.5 18.333 26.3807 18.333 25C18.333 23.6193 17.2137 22.5 15.833 22.5H14.333C14.333 21.1022 14.333 20.4033 14.5614 19.8519C14.8659 19.1169 15.4499 18.5328 16.185 18.2284C16.7363 18 17.4352 18 18.833 18H19.833V16.5Z" stroke="#425464" stroke-width="2" stroke-linecap="round" stroke-linejoin="round"/>
</svg>
