<svg width="48" height="48" viewBox="0 0 48 48" fill="none" xmlns="http://www.w3.org/2000/svg">
<rect width="48" height="48" rx="24" fill="#FEFEFD"/>
<path d="M20 26C20 26 21.5 28 24 28C26.5 28 28 26 28 26M27 21H27.01M21 21H21.01M34 24C34 29.5228 29.5228 34 24 34C18.4772 34 14 29.5228 14 24C14 18.4772 18.4772 14 24 14C29.5228 14 34 18.4772 34 24ZM27.5 21C27.5 21.2761 27.2761 21.5 27 21.5C26.7239 21.5 26.5 21.2761 26.5 21C26.5 20.7239 26.7239 20.5 27 20.5C27.2761 20.5 27.5 20.7239 27.5 21ZM21.5 21C21.5 21.2761 21.2761 21.5 21 21.5C20.7239 21.5 20.5 21.2761 20.5 21C20.5 20.7239 20.7239 20.5 21 20.5C21.2761 20.5 21.5 20.7239 21.5 21Z" stroke="#425464" stroke-width="2" stroke-linecap="round" stroke-linejoin="round"/>
</svg>
