<svg width="25" height="25" viewBox="0 0 25 25" fill="none" xmlns="http://www.w3.org/2000/svg">
<path d="M8 5.1665C8 3.78579 9.11929 2.6665 10.5 2.6665C11.8807 2.6665 13 3.78579 13 5.1665V6.6665H14C15.3978 6.6665 16.0967 6.6665 16.6481 6.89487C17.3831 7.19935 17.9672 7.78337 18.2716 8.51845C18.5 9.06977 18.5 9.76868 18.5 11.1665H20C21.3807 11.1665 22.5 12.2858 22.5 13.6665C22.5 15.0472 21.3807 16.1665 20 16.1665H18.5V17.8665C18.5 19.5467 18.5 20.3867 18.173 21.0285C17.8854 21.593 17.4265 22.0519 16.862 22.3395C16.2202 22.6665 15.3802 22.6665 13.7 22.6665H13V20.9165C13 19.6739 11.9926 18.6665 10.75 18.6665C9.50736 18.6665 8.5 19.6739 8.5 20.9165V22.6665H7.3C5.61984 22.6665 4.77976 22.6665 4.13803 22.3395C3.57354 22.0519 3.1146 21.593 2.82698 21.0285C2.5 20.3867 2.5 19.5467 2.5 17.8665V16.1665H4C5.38071 16.1665 6.5 15.0472 6.5 13.6665C6.5 12.2858 5.38071 11.1665 4 11.1665H2.5C2.5 9.76868 2.5 9.06977 2.72836 8.51845C3.03284 7.78337 3.61687 7.19935 4.35195 6.89487C4.90326 6.6665 5.60218 6.6665 7 6.6665H8V5.1665Z" stroke="#3C8B84" stroke-width="2" stroke-linecap="round" stroke-linejoin="round"/>
</svg>
