<svg width="48" height="48" viewBox="0 0 48 48" fill="none" xmlns="http://www.w3.org/2000/svg">
<rect width="48" height="48" rx="24" fill="#FEFEFD"/>
<path d="M29 26.4996V23.494C29 23.3145 29 23.2248 28.9727 23.1456C28.9485 23.0755 28.9091 23.0117 28.8572 22.9587C28.7986 22.8989 28.7183 22.8587 28.5578 22.7785L24 20.4996M16 21.4996V28.3062C16 28.6781 16 28.8641 16.058 29.0269C16.1093 29.1708 16.1929 29.3011 16.3024 29.4077C16.4262 29.5283 16.5953 29.6057 16.9334 29.7607L23.3334 32.694C23.5786 32.8064 23.7012 32.8626 23.8289 32.8848C23.9421 32.9045 24.0579 32.9045 24.1711 32.8848C24.2988 32.8626 24.4214 32.8064 24.6666 32.694L31.0666 29.7607C31.4047 29.6057 31.5738 29.5283 31.6976 29.4077C31.8071 29.3011 31.8907 29.1708 31.942 29.0269C32 28.8641 32 28.6781 32 28.3062V21.4996M14 20.4996L23.6422 15.6785C23.7734 15.6129 23.839 15.5801 23.9078 15.5672C23.9687 15.5557 24.0313 15.5557 24.0922 15.5672C24.161 15.5801 24.2266 15.6129 24.3578 15.6785L34 20.4996L24.3578 25.3207C24.2266 25.3863 24.161 25.4191 24.0922 25.432C24.0313 25.4434 23.9687 25.4434 23.9078 25.432C23.839 25.4191 23.7734 25.3863 23.6422 25.3207L14 20.4996Z" stroke="#3C8B84" stroke-width="2" stroke-linecap="round" stroke-linejoin="round"/>
</svg>
