<svg width="25" height="25" viewBox="0 0 25 25" fill="none" xmlns="http://www.w3.org/2000/svg">
<path d="M12.5 12.3333L8.22711 8.77251C7.59226 8.24347 7.27484 7.97895 7.04664 7.65469C6.84444 7.36738 6.69429 7.04679 6.60301 6.70753C6.5 6.32464 6.5 5.91144 6.5 5.08505V2.33325M12.5 12.3333L16.7729 8.77251C17.4077 8.24347 17.7252 7.97895 17.9534 7.65469C18.1556 7.36738 18.3057 7.04679 18.397 6.70753C18.5 6.32464 18.5 5.91144 18.5 5.08505V2.33325M12.5 12.3333L8.22711 15.894C7.59226 16.423 7.27484 16.6876 7.04664 17.0118C6.84444 17.2991 6.69429 17.6197 6.60301 17.959C6.5 18.3419 6.5 18.7551 6.5 19.5815V22.3333M12.5 12.3333L16.7729 15.894C17.4077 16.423 17.7252 16.6876 17.9534 17.0118C18.1556 17.2991 18.3057 17.6197 18.397 17.959C18.5 18.3419 18.5 18.7551 18.5 19.5815V22.3333M4.5 2.33325H20.5M4.5 22.3333H20.5" stroke="#3C8B84" stroke-width="2" stroke-linecap="round" stroke-linejoin="round"/>
</svg>
