<svg width="25" height="24" viewBox="0 0 25 24" fill="none" xmlns="http://www.w3.org/2000/svg">
<path d="M20.666 12.5V6.8C20.666 5.11984 20.666 4.27976 20.339 3.63803C20.0514 3.07354 19.5925 2.6146 19.028 2.32698C18.3863 2 17.5462 2 15.866 2H9.46602C7.78586 2 6.94578 2 6.30404 2.32698C5.73956 2.6146 5.28062 3.07354 4.993 3.63803C4.66602 4.27976 4.66602 5.11984 4.66602 6.8V17.2C4.66602 18.8802 4.66602 19.7202 4.993 20.362C5.28062 20.9265 5.73956 21.3854 6.30404 21.673C6.94578 22 7.78586 22 9.46602 22H12.666M14.666 11H8.66602M10.666 15H8.66602M16.666 7H8.66602M15.166 19L17.166 21L21.666 16.5" stroke="#284A70" stroke-width="2" stroke-linecap="round" stroke-linejoin="round"/>
</svg>
