<svg width="49" height="48" viewBox="0 0 49 48" fill="none" xmlns="http://www.w3.org/2000/svg">
<rect x="0.666992" width="48" height="48" rx="24" fill="#FEFEFD"/>
<path d="M21.667 23.4999L23.667 25.4999L28.167 20.9999M32.667 23.9999C32.667 28.9083 27.313 32.4783 25.365 33.6147C25.1436 33.7439 25.0329 33.8085 24.8767 33.842C24.7554 33.868 24.5786 33.868 24.4573 33.842C24.3011 33.8085 24.1904 33.7439 23.969 33.6147C22.021 32.4783 16.667 28.9083 16.667 23.9999V19.2175C16.667 18.418 16.667 18.0182 16.7978 17.6746C16.9133 17.371 17.101 17.1001 17.3447 16.8854C17.6205 16.6423 17.9948 16.5019 18.7434 16.2212L24.1052 14.2105C24.3131 14.1326 24.417 14.0936 24.524 14.0782C24.6188 14.0644 24.7152 14.0644 24.81 14.0782C24.9169 14.0936 25.0209 14.1326 25.2288 14.2105L30.5906 16.2212C31.3392 16.5019 31.7135 16.6423 31.9893 16.8854C32.233 17.1001 32.4207 17.371 32.5362 17.6746C32.667 18.0182 32.667 18.418 32.667 19.2175V23.9999Z" stroke="#284A70" stroke-width="2" stroke-linecap="round" stroke-linejoin="round"/>
</svg>
