<svg width="304" height="236" viewBox="0 0 304 236" fill="none" xmlns="http://www.w3.org/2000/svg">
<g opacity="0.2">
<path d="M386.114 236C358.982 236 330.532 223.113 308.141 212.987L307.878 212.855C303.531 210.883 299.316 208.91 294.97 206.937C260.33 191.157 227.534 176.165 190.128 168.538C160.361 162.489 129.936 155.256 97.0085 146.708C93.8475 145.919 90.5547 144.998 87.1302 144.209C61.1832 137.766 29.0457 129.612 11.7916 109.623C-7.83333 86.7415 0.859585 52.9447 10.4745 25.8546C20.4845 -2.02454 36.0264 -27.4051 51.0414 -51.9966C65.9248 -76.4566 81.3349 -101.574 91.2133 -129.059C93.5841 -135.634 95.5597 -142.998 97.5354 -150.889C102.936 -171.535 109.126 -195.074 124.931 -207.83C155.225 -232.29 211.465 -212.959 248.74 -200.203C253.349 -198.625 257.696 -197.178 261.647 -195.863C271.657 -192.576 281.799 -188.894 292.468 -184.948C327.371 -172.192 363.46 -158.91 399.153 -160.883C404.29 -161.146 409.559 -161.541 414.695 -161.935C440.642 -164.039 467.511 -166.143 491.351 -150.889C518.088 -133.661 531.523 -102.232 543.113 -71.5909C556.416 -35.9529 568.929 -0.972519 576.173 35.323C581.178 60.7035 590.529 108.045 564.582 127.64C554.572 135.267 542.06 139.738 530.074 144.078C518.615 148.155 506.893 152.494 496.883 159.464C484.502 168.143 473.57 179.584 463.033 190.631C449.73 204.702 435.901 219.167 418.778 228.373C408.505 233.765 397.441 236 386.114 236ZM164.445 -218.219C149.693 -218.219 136.127 -215.063 125.853 -206.778C110.311 -194.285 104.253 -171.009 98.8525 -150.494C96.7451 -142.604 94.9012 -135.239 92.5304 -128.533C82.6521 -100.917 67.2419 -75.6675 52.2268 -51.2075C37.2118 -26.7475 21.8016 -1.367 11.7916 26.3806C2.17669 53.0762 -6.2528 86.4786 12.8453 108.834C29.836 128.56 61.71 136.582 87.5254 143.026C90.9498 143.815 94.2426 144.735 97.4037 145.524C130.331 154.204 160.757 161.305 190.392 167.354C227.929 174.982 260.725 189.973 295.497 205.885C299.843 207.858 304.058 209.831 308.405 211.803L308.668 211.935C340.279 226.269 383.48 245.732 418.251 227.189C435.242 218.115 448.94 203.65 462.243 189.71C472.78 178.664 483.712 167.091 496.224 158.28C506.366 151.179 518.22 146.971 529.679 142.763C541.533 138.423 553.914 133.952 563.792 126.456C589.081 107.388 579.861 60.572 574.856 35.4545C567.743 -0.709488 555.231 -35.6899 541.928 -71.1964C530.469 -101.706 517.166 -132.872 490.692 -149.837C467.248 -164.828 440.642 -162.724 414.959 -160.751C409.822 -160.357 404.553 -159.962 399.417 -159.699C363.591 -157.727 327.371 -171.009 292.336 -183.896C281.667 -187.842 271.657 -191.524 261.647 -194.68C257.696 -195.995 253.349 -197.441 248.74 -199.02C224.373 -207.304 192.104 -218.219 164.445 -218.219Z" fill="#FEFEFD"/>
<path d="M378.08 217.721C352.923 217.721 327.503 207.463 307.219 199.178C300.502 196.417 293.653 193.655 287.068 190.893C258.355 178.927 228.588 166.565 196.977 160.516C191.051 159.332 185.124 158.28 179.065 157.228C156.279 153.02 132.703 148.68 109.917 142.631L105.834 141.579C82.1256 135.53 52.7541 127.902 35.8951 109.097C14.6896 85.4262 23.2508 50.3143 31.6803 25.9858C40.9001 -0.709778 55.2566 -24.9068 69.0862 -48.3147C82.5207 -71.0652 96.4821 -94.4731 105.438 -119.985C107.282 -125.245 108.995 -131.163 110.707 -137.344C116.502 -157.99 123.088 -181.267 140.21 -192.445C167.474 -210.198 214.363 -198.231 248.608 -189.42C254.14 -187.973 259.277 -186.658 263.887 -185.606C271.526 -183.765 279.297 -181.793 287.595 -179.689C323.157 -170.615 359.904 -161.278 394.412 -167.327C400.076 -168.379 405.871 -169.563 411.403 -170.878C435.374 -176.269 457.897 -181.267 481.078 -166.538C509.264 -148.522 520.196 -111.043 527.572 -86.0568C538.109 -50.2873 549.963 -9.65216 555.89 30.194L556.548 34.4021C560.5 59.9142 566.295 98.5767 545.353 117.645C536.001 126.193 523.225 131.585 510.845 136.713C501.098 140.79 490.956 145.13 482.658 150.916C472.122 158.28 462.375 167.88 453.023 177.085C440.379 189.578 427.34 202.466 411.666 210.488C400.998 215.616 389.539 217.721 378.08 217.721ZM307.615 197.995C336.986 209.83 377.29 226.137 411.139 208.91C426.55 201.019 439.589 188.132 452.102 175.77C461.453 166.434 471.2 156.834 481.868 149.469C490.298 143.552 500.439 139.343 510.318 135.135C522.567 130.007 535.211 124.746 544.431 116.33C564.846 97.7877 559.051 59.5197 555.099 34.2706L554.441 30.0624C548.514 -9.65218 536.66 -50.2873 526.123 -86.0568C518.879 -110.78 507.947 -147.996 480.288 -165.749C457.502 -180.215 435.243 -175.217 411.535 -169.957C406.003 -168.774 400.207 -167.459 394.544 -166.407C359.772 -160.226 321.181 -170.089 287.199 -178.768C279.033 -180.872 271.262 -182.845 263.492 -184.686C258.882 -185.738 253.745 -187.053 248.213 -188.499C214.232 -197.179 167.606 -209.146 140.869 -191.656C124.141 -180.741 117.556 -157.596 111.892 -137.212C110.18 -130.9 108.468 -125.114 106.624 -119.722C97.5358 -94.0786 83.5744 -70.5391 70.1399 -47.7887C56.3103 -24.3808 41.9538 -0.315277 32.8657 26.3803C24.5679 50.3143 16.1384 84.9002 36.817 108.177C53.4126 126.719 82.6524 134.215 106.097 140.264L110.18 141.316C132.966 147.234 156.542 151.573 179.328 155.782C185.255 156.834 191.182 158.017 197.241 159.069C228.983 165.118 258.75 177.48 287.595 189.578C294.048 192.472 300.897 195.365 307.615 197.995Z" fill="#FEFEFD"/>
<path d="M366.226 197.206C345.811 197.206 324.869 191.157 305.507 184.976C296.551 182.083 287.331 178.795 278.375 175.639C255.062 167.486 230.827 158.938 206.197 154.335C197.504 152.757 188.548 151.311 179.987 149.864C161.415 146.84 142.054 143.683 123.483 138.555C88.1841 128.955 65.7932 114.621 54.9929 94.6319C45.1146 76.6157 44.7195 54.2598 53.4124 26.3807C61.8419 -0.183426 75.8033 -24.1174 89.2378 -47.1308C100.828 -66.8566 112.814 -87.3715 121.244 -109.464C122.692 -113.278 124.141 -117.355 125.59 -121.563C131.78 -139.711 138.761 -160.357 154.962 -171.009C181.567 -188.368 222.002 -184.554 254.535 -181.529C259.672 -181.003 264.545 -180.609 269.155 -180.214C273.37 -179.951 277.584 -179.557 281.799 -179.162C319.205 -176.138 357.796 -173.113 393.885 -183.37C398.495 -184.685 403.237 -186.263 407.715 -187.71C429.447 -194.943 449.994 -201.65 471.858 -187.71C498.068 -171.009 506.63 -136.291 513.479 -108.412L514.401 -104.862C525.728 -58.8348 532.84 -19.1202 536.133 16.6493C536.265 18.3588 536.396 20.0684 536.66 21.9095C539.294 48.4736 543.114 88.7142 520.854 108.177C512.425 115.541 501.493 120.802 490.956 125.93C482.922 129.875 474.492 133.952 467.512 138.818C458.423 145.13 449.994 152.757 441.696 160.122C430.632 169.985 419.305 180.11 406.266 187.475C393.49 194.576 379.924 197.206 366.226 197.206ZM212.387 -182.713C191.577 -182.713 171.162 -179.951 155.752 -169.825C139.946 -159.436 132.966 -139.053 126.907 -121.168C125.458 -116.829 124.009 -112.883 122.561 -108.938C114.131 -86.7139 102.145 -66.1991 90.5549 -46.3418C77.1204 -23.3284 63.159 0.34259 54.8612 26.9067C46.1683 54.3913 46.6952 76.3527 56.3101 94.1059C66.9786 113.7 89.1061 127.903 124.009 137.503C142.581 142.631 161.81 145.788 180.382 148.812C188.943 150.259 197.899 151.705 206.592 153.283C231.354 157.886 255.589 166.434 279.033 174.587C287.858 177.743 297.078 180.899 306.034 183.924C338.04 194.313 374.655 203.913 405.607 186.423C418.383 179.19 429.711 169.064 440.774 159.201C449.072 151.837 457.633 144.209 466.721 137.897C473.834 132.9 482.263 128.823 490.429 124.878C500.834 119.749 511.635 114.489 519.932 107.256C541.796 88.3197 537.845 48.4735 535.343 22.1725C535.211 20.3314 534.948 18.6218 534.816 16.9122C531.523 -18.8572 524.411 -58.4403 513.084 -104.336L512.162 -107.886C505.313 -135.634 496.883 -170.088 471.199 -186.395C449.862 -199.94 429.579 -193.365 408.11 -186.263C403.632 -184.817 398.89 -183.239 394.28 -181.924C357.928 -171.535 319.205 -174.691 281.799 -177.716C277.584 -178.11 273.37 -178.373 269.287 -178.768C264.677 -179.162 259.803 -179.557 254.667 -180.083C241.232 -181.398 226.744 -182.713 212.387 -182.713Z" fill="#FEFEFD"/>
<path d="M348.182 176.428C332.113 176.428 316.571 173.403 303.136 170.247C281.536 165.118 258.75 160.779 236.886 156.702C203.958 150.521 169.845 144.078 137.839 134.478C110.443 126.193 91.3454 113.042 80.8085 95.5521C69.8765 77.4044 68.2959 54.2594 75.9352 26.9063C83.8378 -1.23584 98.4577 -25.6958 112.551 -49.3668C121.771 -64.7529 131.254 -80.6651 138.893 -97.3663C139.815 -99.3388 140.605 -101.311 141.527 -103.284C148.903 -119.722 156.411 -136.686 171.294 -148.259C196.846 -168.116 233.461 -172.587 265.862 -176.532C269.55 -176.927 273.106 -177.453 276.663 -177.848C315.649 -182.976 357.006 -189.288 396.651 -205.99L400.076 -207.436C420.491 -216.116 441.696 -225.189 463.034 -211.776C487.268 -196.521 494.908 -160.489 499.386 -138.922C508.869 -93.8156 514.796 -46.7367 516.376 -2.55089C516.508 -0.446793 516.508 1.65729 516.64 4.02438C517.825 31.9035 519.406 70.1716 500.966 91.7385C493.064 100.944 480.946 107.388 469.224 113.7C462.638 117.25 456.316 120.67 450.916 124.483C443.804 129.48 436.691 135.267 429.711 140.921C417.198 151.179 404.29 161.831 389.802 168.406C376.236 174.324 362.011 176.428 348.182 176.428ZM303.4 169.064C328.162 174.981 360.299 180.11 389.144 166.96C403.5 160.516 416.276 149.864 428.657 139.738C435.506 134.083 442.618 128.165 449.862 123.168C455.394 119.355 461.716 115.935 468.302 112.385C479.893 106.073 491.878 99.6288 499.649 90.6864C517.825 69.514 516.245 31.6405 515.059 3.89287C514.928 1.65729 514.928 -0.578308 514.796 -2.6824C513.215 -46.7367 507.288 -93.8156 497.805 -138.79C493.327 -160.094 485.819 -195.732 461.98 -210.724C441.301 -223.743 420.491 -214.801 400.339 -206.253L396.915 -204.806C357.138 -187.973 315.649 -181.661 276.531 -176.532C272.975 -176.138 269.418 -175.612 265.731 -175.217C233.593 -171.272 197.109 -166.801 171.821 -147.207C157.201 -135.766 149.693 -119.065 142.449 -102.758C141.527 -100.785 140.737 -98.8128 139.815 -96.8402C132.176 -80.0075 122.693 -64.0954 113.473 -48.7093C99.3797 -25.0383 84.7598 -0.709793 76.9889 27.3008C61.9738 80.8235 82.5207 116.461 137.971 133.163C169.977 142.894 203.958 149.206 236.886 155.387C259.013 159.595 281.668 163.935 303.4 169.064Z" fill="#FEFEFD"/>
<path d="M320.127 156.702C313.937 156.702 307.351 156.308 300.37 155.387C292.6 154.467 283.907 153.546 274.687 152.626C216.866 146.708 137.839 138.555 107.546 95.5524C94.9015 77.5362 92.0038 54.7857 98.7211 27.6956C106.755 -4.52319 123.351 -30.4297 140.869 -57.7829C146.4 -66.4622 152.064 -75.4046 157.464 -84.4785C186.177 -132.872 227.666 -155.886 285.355 -177.321C319.864 -190.209 353.45 -203.228 384.665 -220.718C387.3 -222.165 390.066 -223.874 392.7 -225.452C412.061 -236.893 432.213 -248.86 453.945 -235.578C476.995 -221.507 482.263 -188.105 486.215 -163.776L486.61 -161.015C493.854 -115.645 497.278 -69.8813 496.751 -24.9065C496.751 -22.9339 496.751 -21.0929 496.751 -18.9888C496.488 10.8629 496.093 51.7611 477.126 76.4841C469.619 86.347 458.028 93.3168 446.833 99.892C442.091 102.654 437.745 105.284 433.53 108.177C431.423 109.623 429.184 111.07 427.076 112.517C390.461 137.634 362.801 156.702 320.127 156.702ZM434.057 -240.181C420.096 -240.181 406.661 -232.159 393.49 -224.4C390.856 -222.822 388.09 -221.244 385.324 -219.666C353.977 -202.044 320.391 -189.025 285.751 -176.138C228.325 -154.702 186.967 -131.82 158.518 -83.8209C153.118 -74.7471 147.454 -65.8047 141.922 -57.1253C124.405 -29.7722 107.941 -3.99716 99.9065 27.9586C93.1892 54.6542 96.0869 77.1416 108.599 94.7633C138.498 137.24 217.261 145.393 274.819 151.311C284.038 152.231 292.731 153.152 300.634 154.072C354.635 160.779 384.797 140.001 426.55 111.333C428.657 109.886 430.764 108.44 433.003 106.993C437.218 104.1 441.565 101.47 446.306 98.7085C457.37 92.1332 468.829 85.295 476.205 75.6951C494.776 51.2351 495.171 10.5999 495.566 -19.1203C495.566 -21.0929 495.566 -23.0655 495.566 -25.038C496.093 -69.8814 492.8 -115.645 485.424 -160.883L485.029 -163.645C481.21 -187.71 475.941 -220.849 453.419 -234.526C446.701 -238.471 440.379 -240.181 434.057 -240.181Z" fill="#FEFEFD"/>
<path d="M298.131 140.395C297.867 140.395 297.736 140.395 297.472 140.395C259.144 140.264 169.186 139.869 134.151 96.8672C119.926 79.377 115.711 56.3636 121.375 28.3529C137.97 -52.6544 221.607 -130.9 294.311 -177.19C324.209 -196.258 356.215 -216.905 386.772 -238.866C388.748 -240.313 390.723 -241.759 392.699 -243.206C407.714 -254.384 424.837 -267.14 444.198 -255.699C464.877 -243.469 468.696 -211.644 471.462 -188.499C471.726 -186.527 471.989 -184.554 472.121 -182.845C477.653 -138.79 479.365 -93.4211 476.994 -48.0517C475.414 -17.1479 473.174 25.1968 455.13 57.1526C447.227 71.2236 435.637 78.7194 423.256 86.7412C420.885 88.3193 418.383 89.8974 415.88 91.607C413.378 93.3165 410.875 95.0261 408.504 96.6042C373.864 120.012 343.703 140.395 298.131 140.395ZM428.656 -259.118C416.144 -259.118 404.816 -250.57 393.621 -242.285C391.645 -240.839 389.538 -239.26 387.562 -237.814C356.874 -215.853 324.868 -195.206 294.97 -176.006C222.529 -129.848 139.287 -51.8654 122.692 28.7474C117.028 56.3635 121.243 78.9825 135.204 96.0781C169.844 138.686 259.276 139.08 297.472 139.212C297.736 139.212 297.867 139.212 298.131 139.212C343.307 139.212 371.889 119.881 407.978 95.4206C410.48 93.711 412.851 92.133 415.485 90.4234C417.988 88.7139 420.49 87.1358 422.861 85.5577C435.505 77.4044 446.437 70.3031 454.208 56.4951C471.989 24.8022 474.228 -17.2794 475.94 -48.0517C478.311 -93.4211 476.731 -138.659 471.199 -182.582C470.935 -184.423 470.804 -186.264 470.54 -188.236C467.774 -211.118 464.086 -242.548 443.935 -254.384C438.534 -257.803 433.529 -259.118 428.656 -259.118Z" fill="#FEFEFD"/>
<path d="M257.037 127.771C223.056 127.771 183.543 121.853 161.152 98.577C145.346 82.0073 139.551 58.7308 144.161 29.0106C149.298 -4.39172 165.235 -32.4024 194.211 -58.9664C213.309 -76.5882 230.563 -96.84 247.291 -116.303C264.677 -136.686 282.589 -157.727 302.741 -176.006C327.898 -198.757 352.791 -220.718 376.894 -241.364C378.87 -243.074 380.977 -244.915 383.216 -247.019C396.914 -259.512 415.749 -276.739 433.398 -267.271C451.311 -257.671 454.34 -224.4 456.053 -204.674C456.316 -202.044 456.448 -199.546 456.711 -197.442C461.058 -157.464 461.321 -114.462 457.633 -69.6184C453.682 -21.7504 448.282 43.7392 399.417 76.221C395.729 78.7197 392.173 81.0868 388.617 83.4539C358.586 103.837 332.639 121.327 294.838 125.536C284.17 126.719 271.13 127.771 257.037 127.771ZM422.598 -268.717C408.768 -268.717 394.807 -255.961 384.138 -246.099C381.899 -243.994 379.792 -242.153 377.816 -240.444C353.713 -219.797 328.82 -197.836 303.663 -175.086C283.511 -156.938 265.599 -135.897 248.344 -115.514C231.617 -95.9194 214.363 -75.6676 195.265 -58.0459C166.42 -31.6133 150.615 -3.86569 145.61 29.1422C141.132 58.3363 146.664 81.3498 162.337 97.5249C193.684 130.138 258.881 128.166 294.97 124.221C332.376 120.012 358.191 102.522 388.09 82.2703C391.646 79.9032 395.202 77.4046 398.89 75.0375C447.228 42.8187 452.628 -22.2765 456.579 -69.8814C460.267 -114.593 460.004 -157.464 455.657 -197.442C455.394 -199.546 455.262 -202.044 454.999 -204.674C453.287 -224.269 450.389 -257.014 433.003 -266.219C429.447 -267.928 426.022 -268.717 422.598 -268.717Z" fill="#FEFEFD"/>
<path d="M239.257 118.303C224.505 118.303 210.017 115.804 197.899 108.308C185.387 100.681 175.904 88.7141 170.503 73.7225C165.63 60.1775 164.181 44.9229 166.289 29.4052C170.635 -1.23553 184.07 -25.4325 209.885 -48.972C232.671 -69.7498 251.901 -96.3139 270.34 -121.957C282.853 -139.185 295.629 -157.069 309.458 -172.718C311.829 -175.349 315.254 -179.688 319.6 -185.211C343.703 -215.458 393.885 -278.186 419.964 -264.378C435.374 -256.224 437.745 -226.241 439.062 -208.356C439.194 -206.384 439.325 -204.543 439.457 -202.833C442.618 -167.984 442.091 -129.059 437.745 -87.1085C433.003 -41.0816 425.759 28.6162 384.139 64.5172C357.401 87.5306 324.078 104.495 292.731 111.07C276.926 114.358 257.828 118.303 239.257 118.303ZM411.666 -264.904C385.192 -264.904 342.386 -211.381 320.786 -184.291C316.439 -178.768 313.015 -174.56 310.644 -171.798C296.946 -156.149 284.038 -138.396 271.657 -121.168C253.086 -95.3933 233.856 -68.8293 210.939 -47.9199C185.255 -24.6435 171.952 -0.709473 167.738 29.6682C162.206 69.3829 180.118 95.8154 198.69 107.256C225.559 123.695 264.15 115.673 292.468 109.755C323.683 103.311 356.743 86.4785 383.348 63.5966C424.574 28.0902 431.818 -41.2131 436.559 -87.1085C440.906 -128.927 441.433 -167.853 438.272 -202.57C438.14 -204.148 438.008 -206.121 437.877 -208.093C436.428 -225.715 434.189 -255.172 419.437 -263.063C416.935 -264.378 414.432 -264.904 411.666 -264.904Z" fill="#FEFEFD"/>
<path d="M251.768 103.443C233.329 103.443 217.524 98.7086 206.328 89.5032C191.181 77.0102 184.859 56.3638 187.889 29.9312C191.445 -0.446487 208.172 -23.1969 224.899 -43.9748C243.471 -66.9882 260.856 -91.4482 277.584 -115.251C289.306 -131.82 301.292 -148.916 313.673 -165.354C315.648 -167.853 318.282 -171.798 321.312 -176.269C339.62 -202.833 377.816 -258.328 403.763 -244.126C416.144 -237.419 418.251 -217.167 419.7 -203.885C419.832 -202.57 419.963 -201.387 420.095 -200.203C424.441 -162.856 420.754 -123.799 417.724 -97.629C411.665 -46.3419 402.577 11.5205 370.44 50.3146C353.976 70.1719 327.37 85.9525 291.413 97.1305C277.584 101.207 264.018 103.443 251.768 103.443ZM394.806 -245.178C370.44 -245.178 338.698 -199.02 322.497 -175.612C319.468 -171.14 316.702 -167.195 314.858 -164.697C302.477 -148.39 290.491 -131.163 278.769 -114.725C262.042 -90.9222 244.656 -66.4622 226.085 -43.4488C208.699 -22.0134 192.894 -0.314987 189.337 29.7997C186.308 55.7063 192.499 75.9581 207.25 88.1881C225.558 103.311 256.905 106.073 291.15 95.5524C326.844 84.506 353.186 68.9883 369.518 49.2625C401.524 10.7314 410.612 -46.9994 416.539 -98.0235C419.568 -124.062 423.124 -162.987 418.91 -200.335C418.778 -201.518 418.646 -202.702 418.514 -204.017C417.197 -217.036 415.09 -236.762 403.236 -243.205C400.47 -244.52 397.704 -245.178 394.806 -245.178Z" fill="#FEFEFD"/>
<path d="M260.067 88.3197C245.974 88.3197 233.593 84.6375 224.637 77.4048C211.993 67.2788 206.461 50.5777 208.7 29.2738C211.597 1.39468 227.666 -23.8544 240.705 -44.1062C266.257 -83.9523 291.019 -120.511 314.464 -152.861C315.649 -154.571 317.229 -156.938 319.073 -159.568C333.298 -180.346 362.801 -223.742 385.324 -210.855C410.481 -196.521 402.315 -136.291 398.363 -107.229C397.968 -104.204 397.573 -101.574 397.31 -99.3384C384.797 3.89325 350.157 63.4652 291.282 82.928C280.482 86.4786 269.814 88.3197 260.067 88.3197ZM376.499 -211.776C356.216 -211.776 332.376 -176.664 320.127 -158.647C318.283 -155.886 316.703 -153.65 315.517 -151.941C292.073 -119.59 267.311 -83.0318 241.759 -43.3172C228.851 -23.1968 212.783 1.78917 210.017 29.4053C207.909 50.3146 213.178 66.4898 225.427 76.3527C240.31 88.3197 264.809 90.2923 290.887 81.6129C349.235 62.2816 383.612 3.10422 395.993 -99.6015C396.256 -101.837 396.651 -104.467 397.046 -107.492C400.998 -136.16 409.032 -195.863 384.665 -209.803C382.031 -211.118 379.397 -211.776 376.499 -211.776Z" fill="#FEFEFD"/>
<path d="M268.232 67.673C259.408 67.673 251.373 65.3059 244.788 60.5717C233.592 52.4184 228.456 38.6103 230.563 21.5146C237.28 -34.3751 286.54 -97.7607 313.014 -131.689C313.936 -132.873 315.121 -134.451 316.439 -136.292C327.502 -151.283 348.313 -179.294 365.435 -169.431C384.006 -158.779 378.343 -114.462 375.972 -95.5251C375.84 -94.0785 375.577 -92.7635 375.445 -91.7114C371.494 -58.1776 363.855 -28.8519 352.923 -4.52339C338.434 27.6954 318.151 49.9198 292.862 61.7553C284.433 65.7005 276.135 67.673 268.232 67.673ZM357.928 -170.089C343.044 -170.089 326.185 -147.338 317.492 -135.503C316.175 -133.662 314.99 -132.215 314.068 -130.9C287.726 -96.9717 238.597 -33.8491 231.88 21.6462C229.905 38.2158 234.778 51.6294 245.578 59.3882C257.696 68.0676 275.081 68.5936 292.204 60.5717C323.024 46.2377 362.274 8.23264 374.128 -91.8429C374.26 -93.0265 374.391 -94.21 374.655 -95.7881C377.026 -114.462 382.557 -158.253 364.777 -168.379C362.537 -169.431 360.298 -170.089 357.928 -170.089Z" fill="#FEFEFD"/>
<path d="M277.979 39.2678C273.106 39.2678 268.364 37.9528 264.281 35.1912C255.588 29.405 251.769 18.753 253.744 6.65453C260.725 -34.6382 288.516 -78.5609 310.248 -103.547C310.907 -104.336 311.697 -105.257 312.487 -106.177C319.995 -115.119 332.376 -130.111 344.756 -124.062C357.006 -118.144 354.108 -92.369 352.659 -80.0075C352.527 -78.6924 352.396 -77.5089 352.264 -76.5884C348.708 -40.0299 331.849 10.8627 295.628 33.7446C289.833 37.2953 283.774 39.2678 277.979 39.2678ZM338.961 -124.193C329.215 -124.193 319.731 -112.752 313.541 -105.388C312.751 -104.336 311.96 -103.415 311.302 -102.626C289.701 -77.7719 262.042 -34.1121 255.061 6.91756C253.086 18.49 256.774 28.7474 265.071 34.1391C273.501 39.7939 284.696 39.1363 294.97 32.6926C330.795 10.0737 347.522 -40.4244 350.947 -76.7199C351.079 -77.6404 351.21 -78.824 351.342 -80.2705C352.659 -92.369 355.557 -117.487 344.23 -123.01C342.386 -123.799 340.673 -124.193 338.961 -124.193Z" fill="#FEFEFD"/>
<path d="M287.726 5.60262C286.014 5.60262 284.565 5.20808 283.116 4.41904C278.638 1.78893 276.662 -4.52331 277.848 -13.0712C280.087 -29.2463 289.438 -48.1831 306.561 -70.6705C313.014 -79.2183 318.415 -78.5608 321.049 -77.3773C326.712 -74.8787 329.873 -65.6733 328.161 -56.9939C325.132 -41.4763 317.361 -13.4657 299.316 0.736908C295.233 4.02454 291.282 5.60262 287.726 5.60262ZM317.756 -76.7197C314.463 -76.7197 311.039 -74.3526 307.614 -69.8815C290.624 -47.5256 281.272 -28.8518 279.165 -12.9396C278.111 -4.91782 279.823 0.999908 283.775 3.2355C287.463 5.33958 292.863 4.02455 298.526 -0.446632C316.176 -14.3862 323.815 -42.1338 326.844 -57.3885C328.425 -65.5418 325.659 -74.0896 320.522 -76.3252C319.6 -76.5882 318.81 -76.7197 317.756 -76.7197Z" fill="#FEFEFD"/>
</g>
</svg>
