<svg width="304" height="192" viewBox="0 0 304 192" fill="none" xmlns="http://www.w3.org/2000/svg">
<g opacity="0.2">
<path d="M293.153 0.000213623C272.553 0.000213623 250.953 9.8002 233.953 17.5002L233.753 17.6002C230.453 19.1002 227.253 20.6002 223.953 22.1002C197.653 34.1002 172.753 45.5002 144.353 51.3002C121.753 55.9002 98.6526 61.4002 73.6526 67.9002C71.2526 68.5002 68.7526 69.2002 66.1526 69.8002C46.4526 74.7002 22.0526 80.9002 8.95263 96.1002C-5.94737 113.5 0.65263 139.2 7.95263 159.8C15.5526 181 27.3526 200.3 38.7526 219C50.0526 237.6 61.7526 256.7 69.2526 277.6C71.0526 282.6 72.5526 288.2 74.0526 294.2C78.1526 309.9 82.8526 327.8 94.8526 337.5C117.853 356.1 160.553 341.4 188.853 331.7C192.353 330.5 195.653 329.4 198.653 328.4C206.253 325.9 213.953 323.1 222.053 320.1C248.553 310.4 275.953 300.3 303.053 301.8C306.953 302 310.953 302.3 314.853 302.6C334.553 304.2 354.953 305.8 373.053 294.2C393.353 281.1 403.553 257.2 412.353 233.9C422.453 206.8 431.953 180.2 437.453 152.6C441.253 133.3 448.353 97.3002 428.653 82.4002C421.053 76.6002 411.553 73.2002 402.453 69.9002C393.753 66.8002 384.853 63.5002 377.253 58.2002C367.853 51.6002 359.553 42.9002 351.553 34.5002C341.453 23.8002 330.953 12.8002 317.953 5.8002C310.153 1.7002 301.753 0.000213623 293.153 0.000213623ZM124.853 345.4C113.653 345.4 103.353 343 95.5526 336.7C83.7526 327.2 79.1526 309.5 75.0526 293.9C73.4526 287.9 72.0526 282.3 70.2526 277.2C62.7526 256.2 51.0526 237 39.6526 218.4C28.2526 199.8 16.5526 180.5 8.95263 159.4C1.65263 139.1 -4.74737 113.7 9.75263 96.7002C22.6526 81.7002 46.8526 75.6002 66.4526 70.7002C69.0526 70.1002 71.5526 69.4002 73.9526 68.8002C98.9526 62.2002 122.053 56.8002 144.553 52.2002C173.053 46.4002 197.953 35.0002 224.353 22.9002C227.653 21.4002 230.853 19.9002 234.153 18.4002L234.353 18.3002C258.353 7.40021 291.153 -7.39981 317.553 6.7002C330.453 13.6002 340.853 24.6002 350.953 35.2002C358.953 43.6002 367.253 52.4002 376.753 59.1002C384.453 64.5002 393.453 67.7002 402.153 70.9002C411.153 74.2002 420.553 77.6002 428.053 83.3002C447.253 97.8002 440.253 133.4 436.453 152.5C431.053 180 421.553 206.6 411.453 233.6C402.753 256.8 392.653 280.5 372.553 293.4C354.753 304.8 334.553 303.2 315.053 301.7C311.153 301.4 307.153 301.1 303.253 300.9C276.053 299.4 248.553 309.5 221.953 319.3C213.853 322.3 206.253 325.1 198.653 327.5C195.653 328.5 192.353 329.6 188.853 330.8C170.353 337.1 145.853 345.4 124.853 345.4Z" fill="#A1A9B1"/>
<path d="M287.053 13.9002C267.953 13.9002 248.653 21.7003 233.253 28.0002C228.153 30.1003 222.953 32.2002 217.953 34.3002C196.153 43.4002 173.553 52.8002 149.553 57.4002C145.053 58.3002 140.553 59.1003 135.953 59.9002C118.653 63.1003 100.753 66.4002 83.4527 71.0002L80.3527 71.8002C62.3527 76.4002 40.0527 82.2002 27.2527 96.5002C11.1527 114.5 17.6527 141.2 24.0527 159.7C31.0527 180 41.9527 198.4 52.4527 216.2C62.6527 233.5 73.2527 251.3 80.0527 270.7C81.4527 274.7 82.7527 279.2 84.0527 283.9C88.4527 299.6 93.4527 317.3 106.453 325.8C127.153 339.3 162.753 330.2 188.753 323.5C192.953 322.4 196.853 321.4 200.353 320.6C206.153 319.2 212.053 317.7 218.353 316.1C245.353 309.2 273.253 302.1 299.453 306.7C303.753 307.5 308.153 308.4 312.353 309.4C330.553 313.5 347.653 317.3 365.253 306.1C386.653 292.4 394.953 263.9 400.553 244.9C408.553 217.7 417.553 186.8 422.053 156.5L422.553 153.3C425.553 133.9 429.953 104.5 414.053 90.0002C406.953 83.5002 397.253 79.4002 387.853 75.5002C380.453 72.4002 372.753 69.1002 366.453 64.7002C358.453 59.1002 351.053 51.8002 343.953 44.8002C334.353 35.3002 324.453 25.5002 312.553 19.4002C304.453 15.5002 295.753 13.9002 287.053 13.9002ZM233.553 28.9002C255.853 19.9002 286.453 7.50024 312.153 20.6003C323.853 26.6003 333.753 36.4002 343.253 45.8002C350.353 52.9002 357.753 60.2002 365.853 65.8002C372.253 70.3002 379.953 73.5002 387.453 76.7002C396.753 80.6002 406.353 84.6003 413.353 91.0002C428.853 105.1 424.453 134.2 421.453 153.4L420.953 156.6C416.453 186.8 407.453 217.7 399.453 244.9C393.953 263.7 385.653 292 364.653 305.5C347.353 316.5 330.453 312.7 312.453 308.7C308.253 307.8 303.853 306.8 299.553 306C273.153 301.3 243.853 308.8 218.053 315.4C211.853 317 205.953 318.5 200.053 319.9C196.553 320.7 192.653 321.7 188.453 322.8C162.653 329.4 127.253 338.5 106.953 325.2C94.2527 316.9 89.2527 299.3 84.9527 283.8C83.6527 279 82.3527 274.6 80.9527 270.5C74.0527 251 63.4527 233.1 53.2527 215.8C42.7527 198 31.8527 179.7 24.9527 159.4C18.6527 141.2 12.2527 114.9 27.9527 97.2002C40.5527 83.1002 62.7527 77.4002 80.5527 72.8002L83.6527 72.0002C100.953 67.5002 118.853 64.2003 136.153 61.0002C140.653 60.2003 145.153 59.3002 149.753 58.5002C173.853 53.9002 196.453 44.5002 218.353 35.3002C223.253 33.1002 228.453 30.9002 233.553 28.9002Z" fill="#A1A9B1"/>
<path d="M278.053 29.5002C262.553 29.5002 246.653 34.1002 231.953 38.8002C225.153 41.0002 218.153 43.5002 211.353 45.9002C193.653 52.1002 175.253 58.6002 156.553 62.1002C149.953 63.3002 143.153 64.4002 136.653 65.5002C122.553 67.8002 107.853 70.2002 93.7531 74.1002C66.9531 81.4002 49.9531 92.3002 41.7531 107.5C34.2531 121.2 33.953 138.2 40.553 159.4C46.953 179.6 57.5531 197.8 67.7531 215.3C76.5531 230.3 85.653 245.9 92.0531 262.7C93.153 265.6 94.2531 268.7 95.3531 271.9C100.053 285.7 105.353 301.4 117.653 309.5C137.853 322.7 168.553 319.8 193.253 317.5C197.153 317.1 200.853 316.8 204.353 316.5C207.553 316.3 210.753 316 213.953 315.7C242.353 313.4 271.653 311.1 299.053 318.9C302.553 319.9 306.153 321.1 309.553 322.2C326.053 327.7 341.653 332.8 358.253 322.2C378.153 309.5 384.653 283.1 389.853 261.9L390.553 259.2C399.153 224.2 404.553 194 407.053 166.8C407.153 165.5 407.253 164.2 407.453 162.8C409.453 142.6 412.353 112 395.453 97.2002C389.053 91.6002 380.753 87.6002 372.753 83.7002C366.653 80.7002 360.253 77.6002 354.953 73.9002C348.053 69.1002 341.653 63.3002 335.353 57.7002C326.953 50.2002 318.353 42.5002 308.453 36.9002C298.753 31.5002 288.453 29.5002 278.053 29.5002ZM161.253 318.4C145.453 318.4 129.953 316.3 118.253 308.6C106.253 300.7 100.953 285.2 96.3531 271.6C95.2531 268.3 94.153 265.3 93.0531 262.3C86.653 245.4 77.5531 229.8 68.7531 214.7C58.5531 197.2 47.953 179.2 41.653 159C35.053 138.1 35.4531 121.4 42.7531 107.9C50.8531 93.0002 67.653 82.2002 94.153 74.9002C108.253 71.0002 122.853 68.6002 136.953 66.3002C143.453 65.2002 150.253 64.1002 156.853 62.9002C175.653 59.4002 194.053 52.9002 211.853 46.7002C218.553 44.3002 225.553 41.9002 232.353 39.6002C256.653 31.7002 284.453 24.4002 307.953 37.7002C317.653 43.2002 326.253 50.9002 334.653 58.4002C340.953 64.0002 347.453 69.8002 354.353 74.6002C359.753 78.4002 366.153 81.5002 372.353 84.5002C380.253 88.4002 388.453 92.4002 394.753 97.9002C411.353 112.3 408.353 142.6 406.453 162.6C406.353 164 406.153 165.3 406.053 166.6C403.553 193.8 398.153 223.9 389.553 258.8L388.853 261.5C383.653 282.6 377.253 308.8 357.753 321.2C341.553 331.5 326.153 326.5 309.853 321.1C306.453 320 302.853 318.8 299.353 317.8C271.753 309.9 242.353 312.3 213.953 314.6C210.753 314.9 207.553 315.1 204.453 315.4C200.953 315.7 197.253 316 193.353 316.4C183.153 317.4 172.153 318.4 161.253 318.4Z" fill="#A1A9B1"/>
<path d="M264.353 45.2999C252.153 45.2999 240.353 47.5999 230.153 49.9999C213.753 53.8999 196.453 57.1999 179.853 60.2999C154.853 64.9999 128.953 69.8999 104.653 77.1999C83.8529 83.4999 69.3529 93.4999 61.3529 106.8C53.0529 120.6 51.8529 138.2 57.6529 159C63.6529 180.4 74.7529 199 85.4529 217C92.4529 228.7 99.6529 240.8 105.453 253.5C106.153 255 106.753 256.5 107.453 258C113.053 270.5 118.753 283.4 130.053 292.2C149.453 307.3 177.253 310.7 201.853 313.7C204.653 314 207.353 314.4 210.053 314.7C239.653 318.6 271.053 323.4 301.153 336.1L303.753 337.2C319.253 343.8 335.353 350.7 351.553 340.5C369.953 328.9 375.753 301.5 379.153 285.1C386.353 250.8 390.853 215 392.053 181.4C392.153 179.8 392.153 178.2 392.253 176.4C393.153 155.2 394.353 126.1 380.353 109.7C374.353 102.7 365.153 97.7999 356.253 92.9999C351.253 90.2999 346.453 87.6999 342.353 84.7999C336.953 80.9999 331.553 76.5999 326.253 72.2999C316.753 64.4999 306.953 56.3999 295.953 51.3999C285.653 46.8999 274.853 45.2999 264.353 45.2999ZM230.353 50.8999C249.153 46.3999 273.553 42.4999 295.453 52.4999C306.353 57.3999 316.053 65.4999 325.453 73.1999C330.653 77.4999 336.053 81.9999 341.553 85.7999C345.753 88.6999 350.553 91.2999 355.553 93.9999C364.353 98.7999 373.453 103.7 379.353 110.5C393.153 126.6 391.953 155.4 391.053 176.5C390.953 178.2 390.953 179.9 390.853 181.5C389.653 215 385.153 250.8 377.953 285C374.553 301.2 368.853 328.3 350.753 339.7C335.053 349.6 319.253 342.8 303.953 336.3L301.353 335.2C271.153 322.4 239.653 317.6 209.953 313.7C207.253 313.4 204.553 313 201.753 312.7C177.353 309.7 149.653 306.3 130.453 291.4C119.353 282.7 113.653 270 108.153 257.6C107.453 256.1 106.853 254.6 106.153 253.1C100.353 240.3 93.1529 228.2 86.1529 216.5C75.4529 198.5 64.3529 180 58.4529 158.7C47.0529 118 62.6529 90.8999 104.753 78.1999C129.053 70.7999 154.853 65.9999 179.853 61.2999C196.653 58.0999 213.853 54.7999 230.353 50.8999Z" fill="#A1A9B1"/>
<path d="M243.052 60.3001C238.352 60.3001 233.352 60.6001 228.052 61.3001C222.152 62.0001 215.552 62.7001 208.552 63.4001C164.652 67.9001 104.652 74.1001 81.6522 106.8C72.0522 120.5 69.8522 137.8 74.9522 158.4C81.0522 182.9 93.6522 202.6 106.952 223.4C111.152 230 115.452 236.8 119.552 243.7C141.352 280.5 172.852 298 216.652 314.3C242.852 324.1 268.352 334 292.052 347.3C294.052 348.4 296.152 349.7 298.152 350.9C312.852 359.6 328.152 368.7 344.652 358.6C362.152 347.9 366.152 322.5 369.152 304L369.452 301.9C374.952 267.4 377.552 232.6 377.152 198.4C377.152 196.9 377.152 195.5 377.152 193.9C376.952 171.2 376.652 140.1 362.252 121.3C356.552 113.8 347.752 108.5 339.252 103.5C335.652 101.4 332.352 99.4001 329.152 97.2001C327.552 96.1001 325.852 95.0001 324.252 93.9001C296.452 74.8001 275.452 60.3001 243.052 60.3001ZM329.552 362.1C318.952 362.1 308.752 356 298.752 350.1C296.752 348.9 294.652 347.7 292.552 346.5C268.752 333.1 243.252 323.2 216.952 313.4C173.352 297.1 141.952 279.7 120.352 243.2C116.252 236.3 111.952 229.5 107.752 222.9C94.4522 202.1 81.9522 182.5 75.8522 158.2C70.7522 137.9 72.9522 120.8 82.4522 107.4C105.152 75.1001 164.952 68.9001 208.652 64.4001C215.652 63.7001 222.252 63.0001 228.252 62.3001C269.252 57.2001 292.152 73.0001 323.852 94.8001C325.452 95.9001 327.052 97.0001 328.752 98.1001C331.952 100.3 335.252 102.3 338.852 104.4C347.252 109.4 355.952 114.6 361.552 121.9C375.652 140.5 375.952 171.4 376.252 194C376.252 195.5 376.252 197 376.252 198.5C376.652 232.6 374.152 267.4 368.552 301.8L368.252 303.9C365.352 322.2 361.352 347.4 344.252 357.8C339.152 360.8 334.352 362.1 329.552 362.1Z" fill="#A1A9B1"/>
<path d="M226.352 72.7002C226.152 72.7002 226.052 72.7002 225.852 72.7002C196.752 72.8002 128.452 73.1002 101.852 105.8C91.0523 119.1 87.8523 136.6 92.1523 157.9C104.752 219.5 168.252 279 223.452 314.2C246.152 328.7 270.452 344.4 293.652 361.1C295.152 362.2 296.652 363.3 298.152 364.4C309.552 372.9 322.552 382.6 337.252 373.9C352.952 364.6 355.852 340.4 357.952 322.8C358.152 321.3 358.352 319.8 358.452 318.5C362.652 285 363.952 250.5 362.152 216C360.952 192.5 359.252 160.3 345.552 136C339.552 125.3 330.752 119.6 321.352 113.5C319.552 112.3 317.652 111.1 315.752 109.8C313.852 108.5 311.952 107.2 310.152 106C283.852 88.2002 260.952 72.7002 226.352 72.7002ZM325.452 376.5C315.952 376.5 307.352 370 298.852 363.7C297.352 362.6 295.752 361.4 294.252 360.3C270.952 343.6 246.652 327.9 223.952 313.3C168.952 278.2 105.752 218.9 93.1523 157.6C88.8523 136.6 92.0523 119.4 102.652 106.4C128.952 74.0002 196.852 73.7002 225.852 73.6002C226.052 73.6002 226.152 73.6002 226.352 73.6002C260.652 73.6002 282.352 88.3002 309.752 106.9C311.652 108.2 313.452 109.4 315.452 110.7C317.352 112 319.252 113.2 321.052 114.4C330.652 120.6 338.952 126 344.852 136.5C358.352 160.6 360.052 192.6 361.352 216C363.152 250.5 361.952 284.9 357.752 318.3C357.552 319.7 357.452 321.1 357.252 322.6C355.152 340 352.352 363.9 337.052 372.9C332.952 375.5 329.152 376.5 325.452 376.5Z" fill="#A1A9B1"/>
<path d="M195.152 82.3001C169.352 82.3001 139.352 86.8001 122.352 104.5C110.352 117.1 105.952 134.8 109.452 157.4C113.352 182.8 125.452 204.1 147.452 224.3C161.952 237.7 175.052 253.1 187.752 267.9C200.952 283.4 214.552 299.4 229.852 313.3C248.952 330.6 267.852 347.3 286.152 363C287.652 364.3 289.252 365.7 290.952 367.3C301.352 376.8 315.652 389.9 329.052 382.7C342.652 375.4 344.952 350.1 346.252 335.1C346.452 333.1 346.552 331.2 346.752 329.6C350.052 299.2 350.252 266.5 347.452 232.4C344.452 196 340.352 146.2 303.252 121.5C300.452 119.6 297.752 117.8 295.052 116C272.252 100.5 252.552 87.2001 223.852 84.0001C215.752 83.1001 205.852 82.3001 195.152 82.3001ZM320.852 383.8C310.352 383.8 299.752 374.1 291.652 366.6C289.952 365 288.352 363.6 286.852 362.3C268.552 346.6 249.652 329.9 230.552 312.6C215.252 298.8 201.652 282.8 188.552 267.3C175.852 252.4 162.752 237 148.252 223.6C126.352 203.5 114.352 182.4 110.552 157.3C107.152 135.1 111.352 117.6 123.252 105.3C147.052 80.5001 196.552 82.0001 223.952 85.0001C252.352 88.2001 271.952 101.5 294.652 116.9C297.352 118.7 300.052 120.6 302.852 122.4C339.552 146.9 343.652 196.4 346.652 232.6C349.452 266.6 349.252 299.2 345.952 329.6C345.752 331.2 345.652 333.1 345.452 335.1C344.152 350 341.952 374.9 328.752 381.9C326.052 383.2 323.452 383.8 320.852 383.8Z" fill="#A1A9B1"/>
<path d="M181.653 89.4999C170.453 89.4999 159.453 91.3999 150.253 97.0999C140.753 102.9 133.553 112 129.453 123.4C125.753 133.7 124.653 145.3 126.253 157.1C129.553 180.4 139.753 198.8 159.353 216.7C176.653 232.5 191.253 252.7 205.253 272.2C214.753 285.3 224.453 298.9 234.953 310.8C236.753 312.8 239.353 316.1 242.653 320.3C260.953 343.3 299.053 391 318.853 380.5C330.553 374.3 332.353 351.5 333.353 337.9C333.453 336.4 333.553 335 333.653 333.7C336.053 307.2 335.653 277.6 332.353 245.7C328.753 210.7 323.253 157.7 291.653 130.4C271.353 112.9 246.053 99.9999 222.253 94.9999C210.253 92.4999 195.753 89.4999 181.653 89.4999ZM312.553 380.9C292.453 380.9 259.953 340.2 243.553 319.6C240.253 315.4 237.653 312.2 235.853 310.1C225.453 298.2 215.653 284.7 206.253 271.6C192.153 252 177.553 231.8 160.153 215.9C140.653 198.2 130.553 180 127.353 156.9C123.153 126.7 136.753 106.6 150.853 97.8999C171.253 85.3999 200.553 91.4999 222.053 95.9999C245.753 100.9 270.853 113.7 291.053 131.1C322.353 158.1 327.853 210.8 331.453 245.7C334.753 277.5 335.153 307.1 332.753 333.5C332.653 334.7 332.553 336.2 332.453 337.7C331.353 351.1 329.653 373.5 318.453 379.5C316.553 380.5 314.653 380.9 312.553 380.9Z" fill="#A1A9B1"/>
<path d="M191.152 100.8C177.152 100.8 165.152 104.4 156.652 111.4C145.152 120.9 140.352 136.6 142.652 156.7C145.352 179.8 158.052 197.1 170.752 212.9C184.852 230.4 198.052 249 210.752 267.1C219.652 279.7 228.752 292.7 238.152 305.2C239.652 307.1 241.652 310.1 243.952 313.5C257.852 333.7 286.852 375.9 306.552 365.1C315.952 360 317.552 344.6 318.652 334.5C318.752 333.5 318.852 332.6 318.952 331.7C322.252 303.3 319.452 273.6 317.152 253.7C312.552 214.7 305.652 170.7 281.252 141.2C268.752 126.1 248.552 114.1 221.252 105.6C210.752 102.5 200.452 100.8 191.152 100.8ZM299.752 365.9C281.252 365.9 257.152 330.8 244.852 313C242.552 309.6 240.452 306.6 239.052 304.7C229.652 292.3 220.552 279.2 211.652 266.7C198.952 248.6 185.752 230 171.652 212.5C158.452 196.2 146.452 179.7 143.752 156.8C141.452 137.1 146.152 121.7 157.352 112.4C171.252 100.9 195.052 98.7999 221.052 106.8C248.152 115.2 268.152 127 280.552 142C304.852 171.3 311.752 215.2 316.252 254C318.552 273.8 321.252 303.4 318.052 331.8C317.952 332.7 317.852 333.6 317.752 334.6C316.752 344.5 315.152 359.5 306.152 364.4C304.052 365.4 301.952 365.9 299.752 365.9Z" fill="#A1A9B1"/>
<path d="M197.453 112.3C186.753 112.3 177.353 115.1 170.553 120.6C160.953 128.3 156.753 141 158.453 157.2C160.653 178.4 172.853 197.6 182.753 213C202.153 243.3 220.953 271.1 238.753 295.7C239.653 297 240.853 298.8 242.253 300.8C253.053 316.6 275.453 349.6 292.553 339.8C311.653 328.9 305.453 283.1 302.453 261C302.153 258.7 301.853 256.7 301.653 255C292.153 176.5 265.853 131.2 221.153 116.4C212.953 113.7 204.853 112.3 197.453 112.3ZM285.853 340.5C270.453 340.5 252.353 313.8 243.053 300.1C241.653 298 240.453 296.3 239.553 295C221.753 270.4 202.953 242.6 183.553 212.4C173.753 197.1 161.553 178.1 159.453 157.1C157.853 141.2 161.853 128.9 171.153 121.4C182.453 112.3 201.053 110.8 220.853 117.4C265.153 132.1 291.253 177.1 300.653 255.2C300.853 256.9 301.153 258.9 301.453 261.2C304.453 283 310.553 328.4 292.053 339C290.053 340 288.053 340.5 285.853 340.5Z" fill="#A1A9B1"/>
<path d="M203.653 128C196.953 128 190.853 129.8 185.853 133.4C177.353 139.6 173.453 150.1 175.053 163.1C180.153 205.6 217.553 253.8 237.653 279.6C238.353 280.5 239.253 281.7 240.253 283.1C248.653 294.5 264.453 315.8 277.453 308.3C291.553 300.2 287.253 266.5 285.453 252.1C285.353 251 285.153 250 285.053 249.2C282.053 223.7 276.253 201.4 267.953 182.9C256.953 158.4 241.553 141.5 222.353 132.5C215.953 129.5 209.653 128 203.653 128ZM271.753 308.8C260.453 308.8 247.653 291.5 241.053 282.5C240.053 281.1 239.153 280 238.453 279C218.453 253.2 181.153 205.2 176.053 163C174.553 150.4 178.253 140.2 186.453 134.3C195.653 127.7 208.853 127.3 221.853 133.4C245.253 144.3 275.053 173.2 284.053 249.3C284.153 250.2 284.253 251.1 284.453 252.3C286.253 266.5 290.453 299.8 276.953 307.5C275.253 308.3 273.553 308.8 271.753 308.8Z" fill="#A1A9B1"/>
<path d="M211.053 149.6C207.353 149.6 203.753 150.6 200.653 152.7C194.053 157.1 191.153 165.2 192.653 174.4C197.953 205.8 219.053 239.2 235.553 258.2C236.053 258.8 236.653 259.5 237.253 260.2C242.953 267 252.353 278.4 261.753 273.8C271.053 269.3 268.853 249.7 267.753 240.3C267.653 239.3 267.553 238.4 267.453 237.7C264.753 209.9 251.953 171.2 224.453 153.8C220.053 151.1 215.453 149.6 211.053 149.6ZM257.353 273.9C249.953 273.9 242.753 265.2 238.053 259.6C237.453 258.8 236.853 258.1 236.353 257.5C219.953 238.6 198.953 205.4 193.653 174.2C192.153 165.4 194.953 157.6 201.253 153.5C207.653 149.2 216.153 149.7 223.953 154.6C251.153 171.8 263.853 210.2 266.453 237.8C266.553 238.5 266.653 239.4 266.753 240.5C267.753 249.7 269.953 268.8 261.353 273C259.953 273.6 258.653 273.9 257.353 273.9Z" fill="#A1A9B1"/>
<path d="M218.453 175.2C217.153 175.2 216.053 175.5 214.953 176.1C211.553 178.1 210.053 182.9 210.953 189.4C212.653 201.7 219.753 216.1 232.753 233.2C237.653 239.7 241.753 239.2 243.753 238.3C248.053 236.4 250.453 229.4 249.153 222.8C246.853 211 240.953 189.7 227.253 178.9C224.153 176.4 221.153 175.2 218.453 175.2ZM241.253 237.8C238.753 237.8 236.153 236 233.553 232.6C220.653 215.6 213.553 201.4 211.953 189.3C211.153 183.2 212.453 178.7 215.453 177C218.253 175.4 222.353 176.4 226.653 179.8C240.053 190.4 245.853 211.5 248.153 223.1C249.353 229.3 247.253 235.8 243.353 237.5C242.653 237.7 242.053 237.8 241.253 237.8Z" fill="#A1A9B1"/>
</g>
</svg>
