<svg width="768" height="340" viewBox="0 0 768 340" fill="none" xmlns="http://www.w3.org/2000/svg">
<g opacity="0.1">
<path d="M522.78 340C486.044 340 447.524 322.554 417.208 308.846L416.852 308.668C410.967 305.997 405.26 303.327 399.375 300.656C352.474 279.293 308.07 258.998 257.424 248.673C217.122 240.484 175.927 230.692 131.345 219.12C127.065 218.052 122.607 216.806 117.97 215.738C82.8391 207.015 39.3265 195.977 15.9652 168.917C-10.606 137.941 1.16384 92.188 14.1819 55.5146C27.735 17.7731 48.778 -16.586 69.1077 -49.8768C89.259 -82.9897 110.124 -116.993 123.498 -154.2C126.708 -163.101 129.383 -173.071 132.058 -183.752C139.37 -211.702 147.751 -243.569 169.151 -260.838C210.167 -293.95 286.314 -267.781 336.781 -250.512C343.023 -248.376 348.908 -246.418 354.258 -244.637C367.811 -240.187 381.542 -235.202 395.987 -229.861C443.244 -212.593 492.107 -194.612 540.434 -197.282C547.389 -197.638 554.523 -198.172 561.477 -198.707C596.608 -201.555 632.988 -204.403 665.266 -183.752C701.467 -160.431 719.656 -117.883 735.349 -76.4027C753.361 -28.1576 770.302 19.1973 780.11 68.3325C786.887 102.691 799.548 166.781 764.417 193.307C750.864 203.632 733.923 209.685 717.695 215.56C702.18 221.079 686.309 226.954 672.755 236.389C655.992 248.139 641.191 263.627 626.925 278.581C608.913 297.63 590.189 317.213 567.006 329.675C553.096 336.974 538.116 340 522.78 340ZM222.65 -274.902C202.677 -274.902 184.309 -270.629 170.399 -259.413C149.356 -242.501 141.153 -210.99 133.842 -183.218C130.988 -172.537 128.492 -162.567 125.282 -153.488C111.907 -116.102 91.0423 -81.9215 70.7126 -48.8087C50.383 -15.6958 29.5183 18.6632 15.9652 56.2267C2.94714 92.366 -8.466 137.585 17.3919 167.849C40.3965 194.553 83.5524 205.413 118.505 214.136C123.142 215.204 127.6 216.45 131.88 217.518C176.462 229.268 217.657 238.881 257.781 247.071C308.605 257.396 353.009 277.691 400.089 299.232C405.973 301.903 411.68 304.573 417.565 307.243L417.922 307.421C460.721 326.826 519.213 353.174 566.292 328.072C589.297 315.789 607.843 296.206 625.855 277.335C640.121 262.381 654.922 246.714 671.864 234.787C685.595 225.173 701.645 219.477 717.16 213.78C733.209 207.905 749.972 201.852 763.347 191.704C797.587 165.891 785.104 102.513 778.327 68.5105C768.697 19.5533 751.756 -27.8016 733.744 -75.8686C718.23 -117.171 700.218 -159.363 664.374 -182.328C632.631 -202.623 596.608 -199.775 561.834 -197.104C554.879 -196.57 547.746 -196.036 540.791 -195.68C492.285 -193.01 443.244 -210.99 395.809 -228.437C381.364 -233.778 367.811 -238.762 354.258 -243.035C348.908 -244.815 343.023 -246.774 336.781 -248.91C303.79 -260.126 260.099 -274.902 222.65 -274.902Z" fill="#3C8B84"/>
<path d="M511.902 315.254C477.841 315.254 443.423 301.368 415.96 290.153C406.865 286.414 397.592 282.675 388.676 278.937C349.8 262.737 309.497 246.002 266.698 237.813C258.673 236.211 250.648 234.786 242.445 233.362C211.594 227.665 179.673 221.791 148.822 213.601L143.293 212.177C111.194 203.988 71.4263 193.662 48.6 168.205C19.8888 136.16 31.4803 88.6271 42.8934 55.6923C55.3766 19.553 74.8146 -13.2038 93.5392 -44.8924C111.729 -75.6909 130.632 -107.38 142.758 -141.917C145.255 -149.038 147.573 -157.049 149.892 -165.416C157.738 -193.366 166.655 -224.877 189.838 -240.009C226.752 -264.042 290.237 -247.842 336.603 -235.914C344.093 -233.956 351.048 -232.176 357.29 -230.752C367.633 -228.259 378.154 -225.589 389.389 -222.74C437.538 -210.457 487.292 -197.817 534.015 -206.006C541.683 -207.43 549.53 -209.032 557.02 -210.813C589.476 -218.112 619.97 -224.877 651.356 -204.938C689.519 -180.548 704.32 -129.811 714.307 -95.9859C728.573 -47.5628 744.623 7.44724 752.648 61.3891L753.539 67.086C758.889 101.623 766.736 153.963 738.381 179.776C725.72 191.348 708.422 198.647 691.659 205.59C678.462 211.109 664.731 216.984 653.496 224.817C639.23 234.786 626.033 247.782 613.372 260.244C596.252 277.157 578.597 294.603 557.376 305.463C542.931 312.406 527.417 315.254 511.902 315.254ZM416.495 288.55C456.263 304.573 510.832 326.648 556.663 303.326C577.528 292.645 595.182 275.198 612.124 258.464C624.785 245.824 637.981 232.828 652.426 222.859C663.839 214.848 677.571 209.151 690.946 203.454C707.53 196.511 724.65 189.39 737.133 177.996C764.774 152.894 756.928 101.089 751.578 66.9079L750.686 61.2111C742.661 7.4472 726.612 -47.5628 712.345 -95.9859C702.537 -129.455 687.736 -179.836 650.286 -203.87C619.435 -223.453 589.297 -216.688 557.198 -209.566C549.708 -207.964 541.861 -206.184 534.193 -204.76C487.114 -196.393 434.863 -209.744 388.854 -221.494C377.798 -224.343 367.276 -227.013 356.755 -229.505C350.513 -230.93 343.558 -232.71 336.068 -234.668C290.059 -246.418 226.93 -262.618 190.729 -238.941C168.081 -224.165 159.165 -192.832 151.497 -165.238C149.178 -156.693 146.86 -148.86 144.363 -141.561C132.059 -106.845 113.156 -74.9788 94.9659 -44.1803C76.2412 -12.4917 56.8032 20.0871 44.4984 56.2264C33.2636 88.6271 21.8505 135.448 49.8483 166.959C72.3179 192.06 111.907 202.208 143.65 210.397L149.178 211.821C180.029 219.832 211.951 225.707 242.802 231.404C250.826 232.828 258.851 234.43 267.055 235.855C310.032 244.044 350.335 260.778 389.389 277.157C398.127 281.073 407.4 284.99 416.495 288.55Z" fill="#3C8B84"/>
<path d="M495.852 287.482C468.211 287.482 439.856 279.293 413.642 270.926C401.515 267.009 389.032 262.559 376.906 258.286C345.341 247.249 312.528 235.677 279.181 229.446C267.411 227.31 255.284 225.351 243.693 223.393C218.548 219.298 192.334 215.026 167.189 208.083C119.397 195.087 89.0806 175.682 74.4575 148.622C61.0828 124.233 60.5478 93.9681 72.3176 56.2266C83.7307 20.2654 102.634 -12.1353 120.823 -43.2899C136.516 -69.9938 152.744 -97.7659 164.158 -127.674C166.119 -132.837 168.081 -138.356 170.043 -144.053C178.424 -168.62 187.876 -196.57 209.81 -210.99C245.833 -234.49 300.58 -229.327 344.628 -225.232C351.583 -224.52 358.181 -223.986 364.422 -223.452C370.129 -223.096 375.836 -222.562 381.542 -222.028C432.188 -217.933 484.439 -213.839 533.301 -227.725C539.543 -229.505 545.963 -231.641 552.026 -233.6C581.45 -243.391 609.27 -252.47 638.873 -233.6C674.36 -210.99 685.952 -163.992 695.225 -126.25L696.473 -121.443C711.81 -59.1342 721.44 -5.37036 725.898 43.0527C726.076 45.367 726.255 47.6814 726.611 50.1737C730.178 86.135 735.349 140.611 705.212 166.959C693.798 176.928 678.997 184.049 664.731 190.992C653.852 196.333 642.439 201.852 632.988 208.439C620.683 216.984 609.27 227.31 598.035 237.279C583.055 250.631 567.719 264.339 550.064 274.309C532.766 283.922 514.398 287.482 495.852 287.482ZM287.562 -226.835C259.386 -226.835 231.745 -223.096 210.88 -209.388C189.481 -195.324 180.029 -167.73 171.826 -143.519C169.864 -137.644 167.903 -132.303 165.941 -126.962C154.528 -96.8757 138.3 -69.1037 122.607 -42.2218C104.417 -11.0672 85.514 20.9774 74.2792 56.9387C62.5094 94.1461 63.2227 123.876 76.2408 147.91C90.6856 174.436 120.645 193.663 167.903 206.659C193.047 213.602 219.083 217.874 244.228 221.969C255.819 223.927 267.946 225.885 279.716 228.022C313.242 234.253 346.054 245.824 377.797 256.862C389.745 261.135 402.228 265.407 414.355 269.502C457.689 283.566 507.265 296.562 549.173 272.884C566.471 263.093 581.807 249.385 596.787 236.033C608.022 226.063 619.613 215.738 631.918 207.193C641.548 200.428 652.961 194.909 664.017 189.568C678.105 182.625 692.728 175.504 703.963 165.713C733.566 140.077 728.216 86.135 724.828 50.5298C724.65 48.0374 724.293 45.7231 724.115 43.4087C719.656 -5.01434 710.026 -58.6001 694.69 -120.731L693.442 -125.538C684.169 -163.101 672.755 -209.744 637.981 -231.819C609.092 -250.156 581.629 -241.255 552.561 -231.641C546.498 -229.683 540.078 -227.547 533.836 -225.767C484.617 -211.703 432.188 -215.975 381.542 -220.07C375.836 -220.604 370.129 -220.96 364.601 -221.494C358.359 -222.028 351.761 -222.562 344.806 -223.274C326.616 -225.054 307 -226.835 287.562 -226.835Z" fill="#3C8B84"/>
<path d="M471.421 259.354C449.665 259.354 428.622 255.26 410.432 250.987C381.186 244.044 350.335 238.169 320.732 232.651C276.149 224.283 229.962 215.56 186.628 202.564C149.535 191.349 123.677 173.546 109.411 149.868C94.6092 125.301 92.4692 93.9683 102.812 56.9389C113.512 18.8413 133.307 -14.2715 152.388 -46.3162C164.871 -67.1452 177.711 -88.6864 188.054 -111.296C189.303 -113.966 190.373 -116.636 191.621 -119.307C201.607 -141.56 211.772 -164.525 231.923 -180.192C266.52 -207.074 316.095 -213.127 359.965 -218.467C364.958 -219.001 369.773 -219.713 374.588 -220.248C427.373 -227.191 483.369 -235.736 537.046 -258.345L541.683 -260.303C569.324 -272.053 598.035 -284.337 626.925 -266.178C659.738 -245.527 670.081 -196.748 676.144 -167.552C688.984 -106.489 697.009 -42.7556 699.149 17.0611C699.327 19.9095 699.327 22.7579 699.505 25.9624C701.11 63.7039 703.25 115.509 678.284 144.706C667.584 157.168 651.178 165.891 635.306 174.436C626.39 179.243 617.83 183.871 610.518 189.034C600.889 195.799 591.259 203.632 581.807 211.287C564.866 225.173 547.39 239.594 527.773 248.495C509.405 256.506 490.146 259.354 471.421 259.354ZM410.789 249.385C444.315 257.396 487.827 264.339 526.882 246.537C546.32 237.813 563.618 223.393 580.381 209.685C589.654 202.03 599.284 194.019 609.092 187.254C616.582 182.091 625.142 177.462 634.058 172.656C649.751 164.111 665.979 155.387 676.501 143.282C701.11 114.619 698.97 63.3478 697.365 25.7844C697.187 22.7579 697.187 19.7315 697.009 16.8831C694.869 -42.7556 686.844 -106.489 674.004 -167.374C667.941 -196.214 657.776 -244.459 625.498 -264.754C597.5 -282.379 569.324 -270.273 542.04 -258.701L537.403 -256.743C483.547 -233.956 427.373 -225.41 374.409 -218.467C369.594 -217.933 364.779 -217.221 359.786 -216.687C316.274 -211.346 266.876 -205.293 232.637 -178.768C212.842 -163.279 202.677 -140.67 192.869 -118.595C191.621 -115.924 190.551 -113.254 189.303 -110.584C178.959 -87.7962 166.12 -66.2551 153.636 -45.426C134.555 -13.3813 114.76 19.5535 104.239 57.473C83.9094 129.93 111.729 178.175 186.806 200.784C230.14 213.958 276.149 222.503 320.732 230.87C350.691 236.567 381.364 242.442 410.789 249.385Z" fill="#3C8B84"/>
<path d="M433.436 232.65C425.055 232.65 416.138 232.116 406.687 230.87C396.165 229.624 384.395 228.378 371.912 227.131C293.625 219.12 186.627 208.083 145.611 149.868C128.492 125.479 124.568 94.6801 133.663 58.0067C144.541 14.3904 167.011 -20.6808 190.729 -57.7102C198.219 -69.4599 205.887 -81.5657 213.198 -93.8495C252.074 -159.363 308.248 -190.518 386.357 -219.536C433.08 -236.982 478.554 -254.607 520.818 -278.284C524.385 -280.243 528.13 -282.557 531.696 -284.693C557.911 -300.182 585.195 -316.382 614.62 -298.401C645.828 -279.353 652.961 -234.134 658.311 -201.199L658.846 -197.461C668.654 -136.042 673.29 -74.0886 672.577 -13.2037C672.577 -10.5333 672.577 -8.04092 672.577 -5.1925C672.22 35.2194 671.685 90.5855 646.006 124.054C635.841 137.406 620.148 146.842 604.99 155.743C598.57 159.482 592.685 163.042 586.979 166.959C584.125 168.917 581.094 170.875 578.24 172.834C528.665 206.836 491.215 232.65 433.436 232.65ZM587.692 -304.632C568.789 -304.632 550.599 -293.773 532.766 -283.269C529.2 -281.133 525.455 -278.997 521.71 -276.86C479.267 -253.005 433.793 -235.38 386.892 -217.934C309.14 -188.915 253.144 -157.939 214.625 -92.9593C207.314 -80.6755 199.645 -68.5697 192.155 -56.82C168.438 -19.7906 146.146 15.1025 135.268 58.3628C126.173 94.5021 130.097 124.945 147.038 148.8C187.519 206.302 294.16 217.34 372.091 225.351C384.574 226.597 396.344 227.844 407.043 229.09C480.159 238.169 520.996 210.041 577.527 171.231C580.38 169.273 583.234 167.315 586.265 165.356C591.972 161.44 597.857 157.879 604.277 154.141C619.256 145.239 634.771 135.982 644.758 122.986C669.902 89.8734 670.437 34.8633 670.972 -5.37054C670.972 -8.04092 670.972 -10.7113 670.972 -13.3817C671.685 -74.0886 667.227 -136.042 657.241 -197.283L656.706 -201.021C651.534 -233.6 644.401 -278.462 613.906 -296.977C604.811 -302.318 596.252 -304.632 587.692 -304.632Z" fill="#3C8B84"/>
<path d="M403.655 210.575C403.299 210.575 403.12 210.575 402.764 210.575C350.87 210.397 229.07 209.863 181.634 151.648C162.374 127.971 156.668 96.8164 164.336 58.8969C186.806 -50.7671 300.045 -156.693 398.484 -219.358C438.965 -245.171 482.299 -273.122 523.672 -302.852C526.346 -304.81 529.021 -306.768 531.696 -308.727C552.026 -323.859 575.209 -341.128 601.423 -325.639C629.421 -309.083 634.593 -266.001 638.338 -234.668C638.695 -231.998 639.051 -229.327 639.23 -227.013C646.719 -167.374 649.038 -105.955 645.828 -44.5362C643.688 -2.7001 640.656 54.6243 616.225 97.8846C605.525 116.933 589.832 127.081 573.069 137.94C569.859 140.077 566.471 142.213 563.082 144.527C559.694 146.842 556.306 149.156 553.096 151.292C506.195 182.981 465.358 210.575 403.655 210.575ZM580.38 -330.268C563.439 -330.268 548.103 -318.696 532.945 -307.481C530.27 -305.522 527.416 -303.386 524.741 -301.428C483.191 -271.697 439.856 -243.747 399.375 -217.755C301.294 -155.268 188.589 -49.699 166.119 59.431C158.451 96.8164 164.158 127.437 183.061 150.58C229.962 208.261 351.048 208.795 402.764 208.973C403.12 208.973 403.299 208.973 403.655 208.973C464.823 208.973 503.52 182.803 552.383 149.69C555.771 147.376 558.981 145.24 562.547 142.925C565.936 140.611 569.324 138.475 572.534 136.338C589.654 125.301 604.455 115.687 614.977 96.9945C639.051 54.0902 642.083 -2.87811 644.401 -44.5362C647.611 -105.955 645.471 -167.196 637.981 -226.657C637.625 -229.149 637.446 -231.642 637.09 -234.312C633.345 -265.288 628.351 -307.837 601.067 -323.859C593.755 -328.488 586.979 -330.268 580.38 -330.268Z" fill="#3C8B84"/>
<path d="M348.016 193.485C302.007 193.485 248.508 185.473 218.192 153.963C196.792 131.532 188.946 100.021 195.187 59.7871C202.142 14.5685 223.72 -23.351 262.953 -59.3123C288.811 -83.1678 312.172 -110.584 334.82 -136.932C358.359 -164.526 382.612 -193.01 409.897 -217.755C443.958 -248.554 477.662 -278.284 510.297 -306.234C512.972 -308.549 515.825 -311.041 518.857 -313.889C537.403 -330.802 562.904 -354.123 586.8 -341.305C611.053 -328.31 615.155 -283.269 617.473 -256.565C617.83 -253.005 618.008 -249.622 618.365 -246.774C624.25 -192.654 624.606 -134.439 619.613 -73.7324C614.263 -8.93094 606.952 79.726 540.791 123.698C535.798 127.081 530.983 130.285 526.168 133.49C485.509 161.084 450.378 184.761 399.197 190.458C384.752 192.06 367.098 193.485 348.016 193.485ZM572.177 -343.264C553.453 -343.264 534.55 -325.995 520.105 -312.643C517.073 -309.795 514.22 -307.303 511.545 -304.988C478.911 -277.038 445.206 -247.308 411.145 -216.509C383.861 -191.942 359.608 -163.458 336.246 -135.863C313.599 -109.338 290.237 -81.9216 264.379 -58.0661C225.325 -22.2829 203.925 15.2806 197.149 59.9651C191.086 99.4869 198.575 130.641 219.797 152.539C262.239 196.689 350.513 194.019 399.375 188.678C450.021 182.981 484.974 159.304 525.455 131.888C530.27 128.683 535.085 125.301 540.078 122.096C605.525 78.4799 612.837 -9.64304 618.187 -74.0884C623.18 -134.617 622.823 -192.654 616.938 -246.774C616.582 -249.622 616.403 -253.005 616.047 -256.565C613.728 -283.091 609.805 -327.419 586.265 -339.881C581.451 -342.196 576.814 -343.264 572.177 -343.264Z" fill="#3C8B84"/>
<path d="M323.942 180.667C303.969 180.667 284.352 177.284 267.946 167.137C251.005 156.811 238.165 140.611 230.853 120.316C224.255 101.979 222.294 81.3283 225.147 60.3212C231.032 18.8412 249.221 -13.9156 284.174 -45.7823C315.025 -73.9104 341.061 -109.872 366.028 -144.587C382.969 -167.908 400.267 -192.12 418.992 -213.305C422.202 -216.865 426.838 -222.74 432.723 -230.217C465.358 -271.163 533.301 -356.082 568.611 -337.389C589.475 -326.351 592.685 -285.761 594.469 -261.55C594.647 -258.879 594.825 -256.387 595.004 -254.073C599.284 -206.896 598.57 -154.2 592.685 -97.4098C586.266 -35.1007 576.457 59.2531 520.105 107.854C483.904 139.009 438.786 161.974 396.344 170.875C374.944 175.326 349.086 180.667 323.942 180.667ZM557.376 -338.101C521.532 -338.101 463.574 -265.644 434.328 -228.971C428.443 -221.494 423.807 -215.797 420.597 -212.059C402.05 -190.874 384.574 -166.84 367.811 -143.519C342.666 -108.625 316.63 -72.6642 285.601 -44.3581C250.826 -12.8475 232.815 19.5533 227.108 60.6773C219.619 114.441 243.871 150.224 269.016 165.713C305.395 187.966 357.646 177.106 395.987 169.095C438.251 160.372 483.012 137.585 519.035 106.608C574.852 58.541 584.661 -35.2787 591.08 -97.4098C596.965 -154.022 597.679 -206.718 593.399 -253.717C593.22 -255.853 593.042 -258.523 592.864 -261.194C590.902 -285.049 587.871 -324.927 567.898 -335.609C564.509 -337.389 561.121 -338.101 557.376 -338.101Z" fill="#3C8B84"/>
<path d="M340.883 160.55C315.917 160.55 294.517 154.141 279.359 141.679C258.851 124.767 250.292 96.8167 254.393 61.0335C259.208 19.9095 281.856 -10.889 304.504 -39.0171C329.648 -70.1717 353.188 -103.285 375.836 -135.507C391.707 -157.939 407.935 -181.082 424.699 -203.335C427.373 -206.718 430.94 -212.058 435.042 -218.111C459.83 -254.073 511.545 -329.2 546.676 -309.973C563.439 -300.893 566.293 -273.477 568.254 -255.497C568.433 -253.717 568.611 -252.114 568.789 -250.512C574.674 -199.953 569.681 -147.079 565.579 -111.652C557.376 -42.2216 545.071 36.1099 501.559 88.6275C479.268 115.509 443.245 136.873 394.561 152.005C375.836 157.524 357.468 160.55 340.883 160.55ZM534.55 -311.397C501.559 -311.397 458.581 -248.91 436.647 -217.221C432.545 -211.168 428.8 -205.828 426.303 -202.445C409.54 -180.37 393.312 -157.048 377.441 -134.795C354.793 -102.572 331.253 -69.4596 306.109 -38.3051C282.569 -9.2868 261.17 20.0875 256.355 60.8555C252.253 95.9266 260.635 123.343 280.608 139.899C305.396 160.372 347.838 164.111 394.204 149.868C442.532 134.914 478.198 113.907 500.311 87.2033C543.645 35.0417 555.95 -43.1118 563.974 -112.186C568.076 -147.435 572.891 -200.131 567.184 -250.69C567.006 -252.292 566.828 -253.895 566.649 -255.675C564.866 -273.299 562.013 -300.003 545.963 -308.727C542.218 -310.507 538.473 -311.397 534.55 -311.397Z" fill="#3C8B84"/>
<path d="M352.118 140.077C333.036 140.077 316.273 135.092 304.147 125.301C287.027 111.593 279.537 88.9834 282.569 60.1432C286.492 22.4017 308.249 -11.7794 325.903 -39.1954C360.499 -93.1372 394.025 -142.628 425.768 -186.423C427.373 -188.737 429.513 -191.942 432.01 -195.502C451.269 -223.63 491.215 -282.379 521.71 -264.932C555.771 -245.527 544.714 -163.992 539.365 -124.648C538.83 -120.553 538.295 -116.993 537.938 -113.966C520.997 25.7841 474.096 106.43 394.382 132.778C379.759 137.584 365.314 140.077 352.118 140.077ZM509.762 -266.179C482.299 -266.179 450.021 -218.646 433.436 -194.256C430.94 -190.517 428.8 -187.491 427.195 -185.177C395.452 -141.382 361.926 -91.8911 327.33 -38.1272C309.853 -10.8892 288.097 22.9357 284.352 60.3212C281.499 88.6273 288.632 110.525 305.217 123.876C325.368 140.077 358.538 142.747 393.847 130.997C472.847 104.828 519.392 24.7159 536.155 -114.322C536.511 -117.349 537.046 -120.909 537.581 -125.004C542.931 -163.814 553.809 -244.637 520.818 -263.508C517.252 -265.288 513.685 -266.179 509.762 -266.179Z" fill="#3C8B84"/>
<path d="M363.174 112.127C351.226 112.127 340.348 108.922 331.431 102.514C316.273 91.476 309.318 72.7832 312.172 49.6398C321.266 -26.0212 387.962 -111.83 423.806 -157.76C425.055 -159.363 426.659 -161.499 428.443 -163.991C443.423 -184.286 471.599 -222.206 494.782 -208.854C519.926 -194.434 512.258 -134.439 509.048 -108.803C508.87 -106.845 508.513 -105.065 508.335 -103.641C502.985 -58.2439 492.642 -18.5441 477.84 14.3907C458.224 58.0071 430.761 88.0934 396.522 104.116C385.109 109.457 373.874 112.127 363.174 112.127ZM484.617 -209.744C464.465 -209.744 441.639 -178.946 429.869 -162.923C428.086 -160.431 426.481 -158.473 425.233 -156.692C389.567 -110.762 323.05 -25.3091 313.955 49.8178C311.28 72.2491 317.878 90.4078 332.501 100.911C348.908 112.661 372.447 113.373 395.63 102.514C437.359 83.1087 490.502 31.6592 506.551 -103.819C506.73 -105.421 506.908 -107.023 507.265 -109.159C510.475 -134.439 517.965 -193.722 493.89 -207.43C490.858 -208.854 487.827 -209.744 484.617 -209.744Z" fill="#3C8B84"/>
<path d="M376.37 73.6731C369.772 73.6731 363.352 71.8929 357.824 68.1543C346.054 60.3212 340.882 45.9011 343.557 29.5227C353.009 -26.3775 390.637 -85.8382 420.061 -119.663C420.953 -120.731 422.023 -121.977 423.093 -123.224C433.258 -135.329 450.021 -155.624 466.784 -147.435C483.368 -139.424 479.445 -104.531 477.483 -87.7965C477.305 -86.0162 477.127 -84.414 476.948 -83.1678C472.134 -33.6766 449.307 35.2195 400.266 66.196C392.42 71.0028 384.217 73.6731 376.37 73.6731ZM458.937 -147.613C445.741 -147.613 432.901 -132.125 424.519 -122.155C423.449 -120.731 422.379 -119.485 421.488 -118.417C392.242 -84.77 354.792 -25.6654 345.341 29.8788C342.666 45.545 347.659 59.431 358.894 66.7301C370.307 74.3852 385.465 73.4951 399.375 64.7718C447.881 34.1513 470.529 -34.2106 475.165 -83.3458C475.344 -84.592 475.522 -86.1942 475.7 -88.1525C477.483 -104.531 481.407 -138.534 466.07 -146.011C463.574 -147.079 461.255 -147.613 458.937 -147.613Z" fill="#3C8B84"/>
<path d="M389.567 28.0984C387.248 28.0984 385.287 27.5643 383.325 26.4961C377.262 22.9356 374.587 14.3904 376.192 2.81871C379.223 -19.0785 391.885 -44.7142 415.068 -75.1567C423.806 -86.7284 431.118 -85.8382 434.684 -84.236C442.352 -80.8535 446.632 -68.3917 444.314 -56.642C440.212 -35.6349 429.691 2.28463 405.26 21.5114C399.731 25.9621 394.382 28.0984 389.567 28.0984ZM430.226 -83.3459C425.768 -83.3459 421.131 -80.1414 416.494 -74.0885C393.49 -43.8241 380.828 -18.5444 377.975 2.99674C376.548 13.8563 378.867 21.8675 384.217 24.8939C389.21 27.7423 396.521 25.9621 404.19 19.9092C428.086 1.03846 438.429 -36.525 442.531 -57.176C444.671 -68.2136 440.926 -79.7854 433.971 -82.8118C432.722 -83.1678 431.653 -83.3459 430.226 -83.3459Z" fill="#3C8B84"/>
</g>
</svg>
