<svg width="337" height="192" viewBox="0 0 337 192" fill="none" xmlns="http://www.w3.org/2000/svg">
<g opacity="0.2">
<path d="M202.954 -332C231.066 -332 260.542 -318.654 283.74 -308.168L284.013 -308.032C288.517 -305.989 292.883 -303.946 297.387 -301.903C333.277 -285.561 367.256 -270.036 406.012 -262.138C436.852 -255.873 468.375 -248.383 502.491 -239.531C505.766 -238.714 509.178 -237.761 512.726 -236.944C539.609 -230.271 572.906 -221.828 590.783 -201.128C611.116 -177.432 602.109 -142.433 592.148 -114.379C581.776 -85.508 565.674 -59.2246 550.117 -33.7583C534.696 -8.42821 518.73 17.5828 508.496 46.0451C506.039 52.8543 503.992 60.4806 501.945 68.6516C496.35 90.0324 489.937 114.409 473.561 127.619C442.174 152.949 383.904 132.93 345.285 119.72C340.509 118.086 336.006 116.588 331.912 115.226C321.541 111.822 311.033 108.009 299.98 103.923C263.817 90.7133 226.426 76.9588 189.444 79.0015C184.122 79.2739 178.664 79.6824 173.342 80.091C146.458 82.2699 118.62 84.4489 93.9198 68.6516C66.2178 50.8116 52.2985 18.2637 40.2897 -13.467C26.507 -50.3727 13.5429 -86.5975 6.03748 -124.184C0.851868 -150.467 -8.8371 -199.493 18.0462 -219.785C28.4174 -227.683 41.3815 -232.314 53.7996 -236.808C65.6719 -241.029 77.8172 -245.523 88.1884 -252.741C101.016 -261.729 112.342 -273.577 123.259 -285.017C137.042 -299.588 151.371 -314.568 169.111 -324.101C179.755 -329.685 191.218 -332 202.954 -332ZM432.622 138.377C447.906 138.377 461.962 135.109 472.606 126.53C488.708 113.592 494.986 89.4876 500.581 68.243C502.764 60.072 504.675 52.4458 507.131 45.5004C517.366 16.9019 533.332 -9.24532 548.889 -34.5754C564.446 -59.9055 580.412 -86.1889 590.783 -114.924C600.745 -142.569 609.478 -177.159 589.691 -200.311C572.087 -220.738 539.063 -229.045 512.317 -235.718C508.768 -236.535 505.357 -237.489 502.082 -238.306C467.966 -247.294 436.443 -254.648 405.739 -260.912C366.847 -268.811 332.867 -284.336 296.841 -300.814C292.338 -302.857 287.971 -304.899 283.467 -306.942L283.195 -307.078C250.443 -321.922 205.683 -342.078 169.657 -322.876C152.053 -313.479 137.861 -298.499 124.078 -284.063C113.161 -272.624 101.835 -260.64 88.8707 -251.516C78.363 -244.162 66.0813 -239.804 54.209 -235.446C41.9273 -230.952 29.0997 -226.322 18.865 -218.559C-7.33594 -198.813 2.21649 -150.331 7.4021 -124.32C14.7711 -86.8698 27.7351 -50.6451 41.5179 -13.8755C53.3903 17.719 67.173 49.9945 94.6022 67.5621C118.893 83.087 146.458 80.9081 173.069 78.8653C178.391 78.4568 183.849 78.0482 189.171 77.7759C226.289 75.7331 263.817 89.4877 300.116 102.834C311.17 106.919 321.541 110.732 331.912 114.001C336.006 115.362 340.509 116.861 345.285 118.495C370.531 127.074 403.965 138.377 432.622 138.377Z" fill="#FEFEFD"/>
<path d="M211.279 -313.071C237.343 -313.071 263.681 -302.448 284.696 -293.869C291.656 -291.009 298.752 -288.149 305.575 -285.289C335.324 -272.897 366.164 -260.095 398.916 -253.831C405.057 -252.605 411.197 -251.516 417.475 -250.426C441.083 -246.068 465.51 -241.574 489.118 -235.31L493.348 -234.22C517.912 -227.956 548.343 -220.057 565.81 -200.583C587.781 -176.07 578.911 -139.709 570.177 -114.515C560.625 -86.8701 545.75 -61.8123 531.422 -37.5716C517.502 -14.0119 503.037 10.2287 493.758 36.6483C491.847 42.0956 490.073 48.2239 488.299 54.6245C482.295 76.0053 475.472 100.11 457.731 111.685C429.483 130.07 380.903 117.677 345.422 108.553C339.691 107.055 334.369 105.693 329.592 104.604C321.677 102.697 313.626 100.654 305.029 98.4756C268.184 89.0789 230.111 79.4099 194.357 85.6743C188.489 86.7638 182.485 87.9894 176.753 89.3513C151.917 94.9348 128.582 100.11 104.564 84.8572C75.3611 66.2001 64.0346 27.3878 56.3926 1.51299C45.4756 -35.5289 33.1938 -77.6096 27.053 -118.873L26.3707 -123.231C22.2768 -149.651 16.2724 -189.689 37.9701 -209.435C47.659 -218.287 60.8959 -223.871 73.7235 -229.182C83.8218 -233.403 94.3295 -237.897 102.927 -243.89C113.844 -251.516 123.942 -261.457 133.631 -270.99C146.731 -283.927 160.241 -297.273 176.48 -305.581C187.534 -310.892 199.406 -313.071 211.279 -313.071ZM284.286 -292.643C253.855 -304.9 212.097 -321.786 177.026 -303.946C161.06 -295.775 147.55 -282.429 134.586 -269.628C124.897 -259.959 114.799 -250.018 103.745 -242.391C95.0118 -236.263 84.5041 -231.905 74.2693 -227.548C61.5782 -222.236 48.4778 -216.789 38.9254 -208.073C17.7735 -188.871 23.7779 -149.242 27.8718 -123.095L28.5541 -118.737C34.6949 -77.6096 46.9767 -35.5289 57.8937 1.51299C65.3992 27.1155 76.7257 65.6554 105.383 84.0401C128.991 99.0203 152.053 93.8453 176.617 88.398C182.348 87.1723 188.353 85.8105 194.221 84.721C230.247 78.3204 270.231 88.5342 305.438 97.5223C313.899 99.7012 321.95 101.744 330.002 103.651C334.778 104.74 340.1 106.102 345.831 107.6C381.039 116.588 429.347 128.981 457.049 110.868C474.38 99.565 481.203 75.5967 487.071 54.4883C488.845 47.9515 490.619 41.9595 492.53 36.3759C501.946 9.82018 516.411 -14.5567 530.33 -38.1164C544.659 -62.357 559.533 -87.2786 568.949 -114.924C577.546 -139.709 586.28 -175.525 564.855 -199.63C547.661 -218.832 517.366 -226.594 493.075 -232.859L488.845 -233.948C465.237 -240.076 440.81 -244.57 417.202 -248.928C411.061 -250.018 404.92 -251.243 398.643 -252.333C365.755 -258.597 334.914 -271.399 305.029 -283.927C298.342 -286.923 291.246 -289.919 284.286 -292.643Z" fill="#FEFEFD"/>
<path d="M223.56 -291.826C244.712 -291.826 266.41 -285.562 286.47 -279.161C295.75 -276.165 305.302 -272.76 314.582 -269.492C338.736 -261.049 363.845 -252.197 389.363 -247.43C398.37 -245.796 407.65 -244.298 416.52 -242.8C435.761 -239.668 455.821 -236.4 475.062 -231.088C511.635 -221.147 534.833 -206.303 546.023 -185.603C556.258 -166.946 556.668 -143.795 547.661 -114.924C538.927 -87.4149 524.462 -62.6295 510.543 -38.7974C498.534 -18.3699 486.116 2.87472 477.382 25.7535C475.881 29.7029 474.38 33.9245 472.879 38.2824C466.465 57.0757 459.233 78.4565 442.448 89.4874C414.882 107.464 372.988 103.514 339.281 100.382C333.959 99.8373 328.91 99.4287 324.134 99.0202C319.767 98.7478 315.4 98.3393 311.034 97.9307C272.278 94.7985 232.294 91.6663 194.903 102.289C190.127 103.65 185.214 105.285 180.574 106.783C158.058 114.273 136.77 121.218 114.117 106.783C86.9607 89.4874 78.0905 53.5349 70.9944 24.6641L70.0392 20.9871C58.3033 -26.6771 50.9343 -67.8045 47.5227 -104.846C47.3863 -106.617 47.2498 -108.387 46.9769 -110.294C44.2476 -137.803 40.2902 -179.475 63.3525 -199.63C72.0861 -207.256 83.4126 -212.704 94.3297 -218.015C102.654 -222.1 111.388 -226.322 118.62 -231.361C128.036 -237.898 136.77 -245.796 145.367 -253.422C156.83 -263.636 168.566 -274.122 182.076 -281.749C195.313 -289.103 209.368 -291.826 223.56 -291.826ZM382.95 101.608C404.511 101.608 425.663 98.7478 441.629 88.2617C458.005 77.5032 465.237 56.3948 471.514 37.8738C473.016 33.3798 474.517 29.2943 476.018 25.2088C484.751 2.19379 497.17 -19.0508 509.178 -39.6145C523.098 -63.4466 537.563 -87.9596 546.16 -115.469C555.166 -143.931 554.621 -166.674 544.659 -185.058C533.605 -205.35 510.679 -220.057 474.517 -229.999C455.275 -235.31 435.352 -238.578 416.11 -241.711C407.24 -243.209 397.961 -244.707 388.954 -246.341C363.299 -251.107 338.19 -259.959 313.899 -268.403C304.756 -271.671 295.204 -274.939 285.924 -278.072C252.764 -288.83 214.827 -298.772 182.758 -280.659C169.521 -273.169 157.785 -262.683 146.322 -252.469C137.725 -244.843 128.855 -236.944 119.439 -230.407C112.07 -225.232 103.336 -221.011 94.8755 -216.925C84.0949 -211.614 72.9049 -206.167 64.3077 -198.677C41.6548 -179.066 45.7487 -137.803 48.3415 -110.566C48.478 -108.659 48.7509 -106.889 48.8874 -105.119C52.2989 -68.0768 59.6679 -27.0856 71.4038 20.4424L72.3591 24.1193C79.4552 52.854 88.1888 88.5341 114.799 105.421C136.906 119.448 157.922 112.639 180.165 105.285C184.805 103.787 189.718 102.152 194.494 100.791C232.158 90.0321 272.278 93.3005 311.034 96.4327C315.4 96.8413 319.767 97.1136 323.998 97.5222C328.774 97.9307 333.823 98.3393 339.145 98.884C353.064 100.246 368.075 101.608 382.95 101.608Z" fill="#FEFEFD"/>
<path d="M242.256 -270.309C258.904 -270.309 275.007 -267.177 288.926 -263.908C311.306 -258.597 334.914 -254.103 357.567 -249.881C391.683 -243.481 427.027 -236.808 460.188 -226.866C488.572 -218.287 508.359 -204.669 519.276 -186.556C530.603 -167.763 532.24 -143.795 524.326 -115.468C516.138 -86.3252 500.99 -60.9951 486.389 -36.4821C476.836 -20.5486 467.011 -4.0704 459.096 13.2249C458.141 15.2676 457.322 17.3104 456.367 19.3531C448.725 36.3761 440.946 53.9437 425.526 65.9279C399.052 86.4916 361.115 91.1218 327.545 95.2073C323.724 95.6158 320.04 96.1606 316.355 96.5691C275.962 101.88 233.113 108.417 192.037 125.712L188.489 127.21C167.337 136.198 145.367 145.595 123.26 131.704C98.1504 115.907 90.2355 78.5929 85.5958 56.2588C75.7704 9.54793 69.6296 -39.2057 67.992 -84.9634C67.8556 -87.1423 67.8556 -89.3212 67.7191 -91.7725C66.4909 -120.643 64.8534 -160.273 83.9583 -182.607C92.1461 -192.14 104.701 -198.813 116.846 -205.349C123.669 -209.026 130.219 -212.567 135.814 -216.517C143.183 -221.692 150.552 -227.684 157.785 -233.539C170.749 -244.162 184.122 -255.193 199.133 -262.002C213.189 -268.13 227.927 -270.309 242.256 -270.309ZM288.653 -262.683C262.998 -268.811 229.701 -274.122 199.816 -260.504C184.941 -253.831 171.704 -242.8 158.877 -232.314C151.781 -226.458 144.411 -220.33 136.906 -215.155C131.175 -211.205 124.624 -207.665 117.801 -203.988C105.792 -197.451 93.3742 -190.778 85.3229 -181.517C66.4909 -159.592 68.1285 -120.371 69.3567 -91.6364C69.4931 -89.3212 69.4931 -87.0061 69.6296 -84.8272C71.2672 -39.2057 77.408 9.54793 87.2334 56.1227C91.8731 78.1844 99.6516 115.09 124.351 130.615C145.776 144.097 167.337 134.837 188.216 125.985L191.764 124.487C232.976 107.055 275.962 100.518 316.492 95.2073C320.176 94.7987 323.861 94.254 327.682 93.8455C360.979 89.76 398.779 85.1297 424.98 64.8384C440.128 52.9904 447.906 35.6951 455.412 18.8084C456.367 16.7656 457.186 14.7229 458.141 12.6801C466.056 -4.75134 475.881 -21.2295 485.433 -37.163C500.035 -61.676 515.182 -86.8699 523.234 -115.877C538.791 -171.304 517.502 -208.209 460.051 -225.505C426.891 -235.582 391.683 -242.119 357.567 -248.52C334.641 -252.878 311.17 -257.372 288.653 -262.683Z" fill="#FEFEFD"/>
<path d="M271.323 -249.881C277.736 -249.881 284.56 -249.473 291.792 -248.52C299.843 -247.566 308.85 -246.613 318.402 -245.66C378.31 -239.531 460.188 -231.088 491.574 -186.556C504.675 -167.899 507.677 -144.339 500.718 -116.285C492.393 -82.9205 475.199 -56.0924 457.049 -27.7663C451.318 -18.7782 445.45 -9.51768 439.855 -0.121033C410.106 49.9945 367.12 73.8265 307.349 96.0244C271.596 109.37 236.797 122.853 204.456 140.965C201.726 142.463 198.861 144.233 196.131 145.868C176.071 157.716 155.192 170.108 132.676 156.354C108.795 141.782 103.336 107.191 99.2423 81.9976L98.833 79.1377C91.3275 32.1544 87.7794 -15.2374 88.3253 -61.8121C88.3253 -63.8549 88.3253 -65.7614 88.3253 -67.9404C88.5982 -98.854 89.0076 -141.207 108.658 -166.81C116.437 -177.023 128.446 -184.241 140.045 -191.05C144.958 -193.91 149.461 -196.634 153.828 -199.63C156.011 -201.128 158.331 -202.626 160.514 -204.124C198.451 -230.135 227.108 -249.881 271.323 -249.881ZM153.282 161.12C167.747 161.12 181.666 152.813 195.313 144.778C198.042 143.144 200.908 141.51 203.773 139.876C236.252 121.627 271.05 108.145 306.94 94.7988C366.438 72.6009 409.287 48.905 438.763 -0.801956C444.358 -10.1986 450.226 -19.4591 455.958 -28.4472C474.107 -56.7733 491.165 -83.4653 499.489 -116.558C506.449 -144.203 503.447 -167.49 490.483 -185.739C459.506 -229.726 377.901 -238.17 318.266 -244.298C308.714 -245.251 299.707 -246.204 291.519 -247.158C235.569 -254.103 204.319 -232.586 161.06 -202.898C158.877 -201.4 156.693 -199.902 154.374 -198.404C150.007 -195.408 145.503 -192.684 140.591 -189.825C129.128 -183.015 117.256 -175.934 109.614 -165.992C90.3722 -140.662 89.9629 -98.5816 89.5535 -67.8042C89.5535 -65.7614 89.5535 -63.7187 89.5535 -61.6759C89.0076 -15.2374 92.4192 32.1544 100.061 79.0015L100.471 81.8614C104.428 106.783 109.887 141.101 133.222 155.264C140.181 159.35 146.732 161.12 153.282 161.12Z" fill="#FEFEFD"/>
<path d="M294.112 -232.995C294.385 -232.995 294.521 -232.995 294.794 -232.995C334.505 -232.859 427.709 -232.45 464.009 -187.918C478.747 -169.806 483.114 -145.974 477.246 -116.967C460.051 -33.0777 373.397 47.9514 298.069 95.888C267.092 115.635 233.931 137.015 202.272 159.758C200.225 161.256 198.178 162.754 196.131 164.252C180.574 175.828 162.834 189.037 142.774 177.189C121.349 164.524 117.392 131.568 114.526 107.6C114.253 105.557 113.98 103.514 113.844 101.744C108.112 56.1224 106.338 9.13916 108.795 -37.8441C110.432 -69.8472 112.752 -113.698 131.448 -146.791C139.635 -161.362 151.644 -169.125 164.472 -177.432C166.928 -179.066 169.521 -180.701 172.114 -182.471C174.706 -184.241 177.299 -186.012 179.756 -187.646C215.645 -211.886 246.896 -232.995 294.112 -232.995ZM158.877 180.73C171.841 180.73 183.577 171.878 195.176 163.299C197.223 161.801 199.406 160.167 201.453 158.669C233.249 135.926 266.41 114.545 297.387 94.6623C372.442 46.8619 458.687 -33.8948 475.881 -117.375C481.749 -145.974 477.382 -169.397 462.917 -187.101C427.027 -231.225 334.369 -231.633 294.794 -231.769C294.521 -231.769 294.385 -231.769 294.112 -231.769C247.305 -231.769 217.692 -211.75 180.301 -186.42C177.709 -184.65 175.252 -183.016 172.523 -181.245C169.93 -179.475 167.337 -177.841 164.881 -176.206C151.781 -167.763 140.454 -160.409 132.403 -146.11C113.98 -113.29 111.66 -69.711 109.886 -37.8441C107.43 9.13916 109.068 55.9862 114.799 101.471C115.072 103.378 115.208 105.285 115.481 107.327C118.347 131.023 122.168 163.571 143.047 175.828C148.642 179.368 153.827 180.73 158.877 180.73Z" fill="#FEFEFD"/>
<path d="M336.688 -219.921C371.895 -219.921 412.834 -213.793 436.033 -189.688C452.409 -172.529 458.413 -148.425 453.637 -117.647C448.315 -83.0568 431.803 -54.0497 401.781 -26.5407C381.994 -8.2921 364.117 12.6801 346.786 32.8353C328.773 53.9437 310.214 75.7331 289.335 94.6626C263.271 118.222 237.479 140.965 212.506 162.346C210.459 164.116 208.276 166.023 205.956 168.202C191.764 181.139 172.25 198.979 153.963 189.174C135.404 179.232 132.266 144.778 130.492 124.351C130.219 121.627 130.082 119.039 129.809 116.86C125.306 75.4607 125.033 30.9287 128.854 -15.5098C132.948 -65.0806 138.543 -132.9 189.171 -166.537C192.992 -169.125 196.676 -171.576 200.361 -174.027C231.475 -195.136 258.358 -213.248 297.523 -217.606C308.576 -218.832 322.086 -219.921 336.688 -219.921ZM165.153 190.672C179.482 190.672 193.947 177.462 205.001 167.248C207.321 165.069 209.504 163.163 211.551 161.392C236.524 140.012 262.315 117.269 288.38 93.7093C309.259 74.916 327.818 53.1266 345.694 32.0182C363.025 11.7269 380.902 -9.24539 400.689 -27.494C430.575 -54.8668 446.95 -83.6015 452.136 -117.784C456.776 -148.016 451.044 -171.848 434.805 -188.599C402.327 -222.372 334.777 -220.33 297.386 -216.244C258.631 -211.886 231.884 -193.774 200.907 -172.802C197.222 -170.35 193.538 -167.763 189.717 -165.312C139.635 -131.947 134.04 -64.5359 129.946 -15.2375C126.125 31.0649 126.398 75.4607 130.901 116.86C131.174 119.039 131.311 121.627 131.583 124.351C133.358 144.642 136.36 178.552 154.373 188.084C158.057 189.855 161.605 190.672 165.153 190.672Z" fill="#FEFEFD"/>
<path d="M355.111 -210.116C370.395 -210.116 385.406 -207.528 397.96 -199.766C410.924 -191.867 420.75 -179.475 426.345 -163.95C431.394 -149.923 432.895 -134.126 430.712 -118.056C426.208 -86.3253 412.289 -61.2675 385.542 -36.8907C361.934 -15.3737 342.01 12.1353 322.905 38.6911C309.941 56.5311 296.705 75.052 282.376 91.2579C279.92 93.9815 276.371 98.4756 271.868 104.195C246.895 135.517 194.903 200.477 167.883 186.178C151.917 177.734 149.461 146.685 148.096 128.164C147.959 126.121 147.823 124.214 147.687 122.444C144.411 86.3553 144.957 46.045 149.461 2.60249C154.373 -45.0617 161.879 -117.239 205.001 -154.417C232.703 -178.249 267.228 -195.817 299.707 -202.626C316.082 -206.03 335.87 -210.116 355.111 -210.116ZM176.48 186.722C203.909 186.722 248.26 131.296 270.64 103.242C275.143 97.5223 278.691 93.1644 281.148 90.3046C295.34 74.0988 308.713 55.714 321.541 37.874C340.782 11.182 360.706 -16.327 384.45 -37.9802C411.061 -62.0846 424.844 -86.87 429.21 -118.328C434.942 -159.456 416.383 -186.829 397.142 -198.677C369.303 -215.699 329.319 -207.392 299.98 -201.264C267.638 -194.591 233.386 -177.16 205.82 -153.464C163.107 -116.694 155.601 -44.9255 150.689 2.60249C146.185 45.9088 145.64 86.2191 148.915 122.172C149.051 123.806 149.188 125.848 149.324 127.891C150.825 146.14 153.145 176.645 168.429 184.816C171.022 186.178 173.615 186.722 176.48 186.722Z" fill="#FEFEFD"/>
<path d="M342.147 -194.727C361.252 -194.727 377.628 -189.824 389.227 -180.292C404.92 -167.354 411.47 -145.973 408.332 -118.601C404.647 -87.1422 387.316 -63.5824 369.986 -42.0655C350.744 -18.2334 332.731 7.09674 315.4 31.7459C303.255 48.905 290.837 66.6089 278.009 83.6318C275.962 86.2193 273.233 90.3048 270.094 94.935C251.126 122.444 211.552 179.913 184.668 165.206C171.841 158.26 169.657 137.288 168.156 123.534C168.02 122.172 167.883 120.946 167.747 119.72C163.244 81.0443 167.065 40.5979 170.203 13.4974C176.481 -39.6142 185.897 -99.5349 219.194 -139.709C236.252 -160.273 263.817 -176.615 301.072 -188.19C315.4 -192.412 329.456 -194.727 342.147 -194.727ZM193.948 166.295C219.194 166.295 252.081 118.495 268.866 94.2541C272.005 89.6239 274.871 85.5384 276.781 82.9509C289.609 66.0642 302.027 48.2241 314.172 31.2012C331.503 6.55202 349.516 -18.7781 368.757 -42.6102C386.771 -64.8081 403.146 -87.2784 406.831 -118.464C409.969 -145.292 403.556 -166.265 388.272 -178.93C369.303 -194.591 336.825 -197.451 301.345 -186.556C264.363 -175.117 237.07 -159.047 220.149 -138.619C186.988 -98.7177 177.572 -38.9332 171.431 13.9059C168.293 40.8702 164.608 81.1805 168.975 119.857C169.112 121.082 169.248 122.308 169.384 123.67C170.749 137.152 172.932 157.579 185.214 164.252C188.08 165.614 190.946 166.295 193.948 166.295Z" fill="#FEFEFD"/>
<path d="M333.549 -179.066C348.151 -179.066 360.978 -175.253 370.258 -167.763C383.358 -157.277 389.09 -139.982 386.77 -117.92C383.768 -89.0491 367.119 -62.9019 353.609 -41.9296C327.136 -0.666061 301.48 37.1929 277.19 70.694C275.962 72.4644 274.324 74.9157 272.414 77.6394C257.676 99.1564 227.108 144.097 203.773 130.751C177.708 115.907 186.169 53.5349 190.263 23.4384C190.672 20.3062 191.082 17.5825 191.354 15.2674C204.319 -91.6366 240.208 -153.328 301.208 -173.483C312.398 -177.16 323.451 -179.066 333.549 -179.066ZM212.916 131.704C233.931 131.704 258.631 95.3432 271.322 76.6861C273.233 73.8262 274.87 71.5111 276.098 69.7408C300.389 36.2396 326.044 -1.61935 352.518 -42.7467C365.891 -63.5828 382.54 -89.4576 385.405 -118.056C387.589 -139.709 382.13 -156.46 369.439 -166.674C354.019 -179.066 328.637 -181.109 301.617 -172.121C241.164 -152.102 205.547 -90.8195 192.719 15.5398C192.446 17.8549 192.037 20.5786 191.627 23.7108C187.534 53.3988 179.209 115.226 204.455 129.661C207.184 131.023 209.914 131.704 212.916 131.704Z" fill="#FEFEFD"/>
<path d="M325.089 -157.685C334.232 -157.685 342.556 -155.234 349.379 -150.331C360.979 -141.888 366.301 -127.589 364.117 -109.885C357.158 -52.0068 306.12 13.6336 278.691 48.7689C277.736 49.9945 276.508 51.6287 275.143 53.5353C263.68 69.0602 242.119 98.0673 224.379 87.8535C205.138 76.8227 211.006 30.9289 213.462 11.3185C213.598 9.82044 213.871 8.45862 214.008 7.36916C218.102 -27.3576 226.017 -57.7265 237.343 -82.9205C252.354 -116.285 273.369 -139.3 299.57 -151.557C308.304 -155.642 316.901 -157.685 325.089 -157.685ZM232.157 88.5344C247.578 88.5344 265.045 64.9747 274.052 52.7182C275.416 50.8117 276.644 49.3136 277.6 47.9518C304.892 12.8165 355.793 -52.5515 362.753 -110.021C364.8 -127.18 359.751 -141.071 348.561 -149.106C336.006 -158.094 317.993 -158.638 300.253 -150.331C268.32 -135.487 227.654 -96.1302 215.372 7.50533C215.236 8.73097 215.099 9.95663 214.827 11.5908C212.37 30.9289 206.639 76.278 225.061 86.7641C227.381 87.8535 229.701 88.5344 232.157 88.5344Z" fill="#FEFEFD"/>
<path d="M314.99 -128.27C320.04 -128.27 324.952 -126.908 329.183 -124.048C338.189 -118.056 342.147 -107.025 340.1 -94.4964C332.867 -51.7348 304.073 -6.24951 281.557 19.6253C280.875 20.4424 280.056 21.3957 279.237 22.349C271.459 31.6095 258.631 47.1344 245.804 40.8699C233.112 34.7417 236.115 8.04974 237.616 -4.7515C237.752 -6.11334 237.889 -7.33898 238.025 -8.29226C241.71 -46.1513 259.177 -98.8542 296.704 -122.55C302.709 -126.227 308.986 -128.27 314.99 -128.27ZM251.808 41.0061C261.906 41.0061 271.732 29.1582 278.145 21.5319C278.964 20.4424 279.783 19.4892 280.465 18.6721C302.845 -7.06661 331.503 -52.2795 338.735 -94.7688C340.782 -106.753 336.961 -117.375 328.364 -122.959C319.63 -128.815 308.031 -128.134 297.387 -121.461C260.269 -98.0371 242.938 -45.7427 239.39 -8.15609C239.253 -7.2028 239.117 -5.97714 238.98 -4.47912C237.616 8.04976 234.614 34.0608 246.349 39.7805C248.26 40.5976 250.034 41.0061 251.808 41.0061Z" fill="#FEFEFD"/>
</g>
</svg>
