<svg width="21" height="20" viewBox="0 0 21 20" fill="none" xmlns="http://www.w3.org/2000/svg">
<path d="M8.00016 9.58333L9.66683 11.25L13.4168 7.49999M17.1668 9.99999C17.1668 14.0904 12.7052 17.0653 11.0818 18.0124C10.8973 18.12 10.8051 18.1738 10.6749 18.2018C10.5739 18.2234 10.4265 18.2234 10.3254 18.2018C10.1952 18.1738 10.103 18.12 9.9185 18.0124C8.29513 17.0653 3.8335 14.0904 3.8335 9.99999V6.01466C3.8335 5.3484 3.8335 5.01527 3.94246 4.72891C4.03872 4.47594 4.19515 4.25023 4.39821 4.07127C4.62808 3.86869 4.93999 3.75172 5.56383 3.51778L10.032 1.84222C10.2052 1.77725 10.2919 1.74477 10.381 1.73189C10.46 1.72047 10.5403 1.72047 10.6193 1.73189C10.7085 1.74477 10.7951 1.77725 10.9683 1.84222L15.4365 3.51778C16.0603 3.75172 16.3722 3.86869 16.6021 4.07127C16.8052 4.25023 16.9616 4.47594 17.0579 4.72891C17.1668 5.01527 17.1668 5.3484 17.1668 6.01466V9.99999Z" stroke="#284A70" stroke-width="1.66667" stroke-linecap="round" stroke-linejoin="round"/>
</svg>
