<svg width="48" height="48" viewBox="0 0 48 48" fill="none" xmlns="http://www.w3.org/2000/svg">
<rect width="48" height="48" rx="24" fill="#3C8B84"/>
<g clip-path="url(#clip0_111_23986)">
<path fill-rule="evenodd" clip-rule="evenodd" d="M36 24C36 30.6274 30.6274 36 24 36C21.9248 36 19.9726 35.4732 18.2699 34.5461L12 36L13.5587 29.9185C12.5666 28.172 12 26.1522 12 24C12 17.3726 17.3726 12 24 12C30.6274 12 36 17.3726 36 24ZM24.0001 34.2857C29.6807 34.2857 34.2858 29.6807 34.2858 24C34.2858 18.3194 29.6807 13.7143 24.0001 13.7143C18.3194 13.7143 13.7144 18.3194 13.7144 24C13.7144 26.1933 14.4009 28.2263 15.5707 29.8958L14.6494 33.3507L18.1652 32.4717C19.8231 33.6158 21.8334 34.2857 24.0001 34.2857ZM19.9348 17.9056C20.3422 17.902 20.7363 17.8986 21.0001 18.4285C21.2283 18.8869 21.509 19.674 21.8403 20.6143L21.8446 20.6265C21.922 20.8458 22.0428 21.1881 21.884 21.4151C21.7223 21.6463 21.3617 22.1115 21.1005 22.4129C21.0336 22.49 20.8996 22.6667 21.0823 22.9546C21.1277 23.0261 21.1669 23.0995 21.2101 23.1803C21.3841 23.5057 21.6228 23.9524 22.5939 24.8937C23.574 25.8438 24.8036 26.3907 25.2571 26.5727C25.3803 26.6426 25.6764 26.7361 25.8751 26.5513C25.9664 26.4662 26.1385 26.2464 26.3262 26.0067C26.5465 25.7252 26.7885 25.4162 26.9465 25.2656C26.9513 25.2612 26.9562 25.2567 26.9612 25.2521C27.0669 25.1552 27.2345 25.0016 27.5425 25.1249C27.8122 25.2329 28.847 25.7309 29.6286 26.107C29.7823 26.181 29.9262 26.2502 30.0526 26.3109C30.1769 26.3503 30.3572 26.4953 30.3572 26.786C30.3572 27.4418 29.8929 29.3838 27.6362 29.424C25.3795 29.4641 22.6612 28.2839 20.5924 26.0024C18.4487 23.6383 17.8126 22.058 17.8126 20.6143C17.8126 18.8527 19.0447 17.9062 19.8349 17.9062C19.8683 17.9062 19.9016 17.9059 19.9348 17.9056Z" fill="#FEFEFD"/>
</g>
<defs>
<clipPath id="clip0_111_23986">
<rect width="24" height="24" fill="white" transform="translate(12 12)"/>
</clipPath>
</defs>
</svg>
