<svg width="20" height="20" viewBox="0 0 20 20" fill="none" xmlns="http://www.w3.org/2000/svg">
<g clip-path="url(#clip0_149_3506)">
<path fill-rule="evenodd" clip-rule="evenodd" d="M20 10C20 15.5228 15.5228 20 10 20C8.27066 20 6.64384 19.561 5.2249 18.7884L0 20L1.29891 14.9321C0.472141 13.4767 0 11.7935 0 10C0 4.47715 4.47715 0 10 0C15.5228 0 20 4.47715 20 10ZM10.0001 18.5714C14.7339 18.5714 18.5715 14.7339 18.5715 10C18.5715 5.26614 14.7339 1.42858 10.0001 1.42858C5.26619 1.42858 1.42863 5.26614 1.42863 10C1.42863 11.8278 2.00072 13.5219 2.9756 14.9132L2.20785 17.7922L5.13767 17.0598C6.51926 18.0131 8.19446 18.5714 10.0001 18.5714ZM6.61236 4.92131C6.95187 4.91837 7.28024 4.91553 7.50007 5.35707C7.69028 5.73911 7.92418 6.39501 8.20026 7.17855L8.20385 7.18871C8.26831 7.37146 8.36897 7.65679 8.23668 7.84591C8.10192 8.03857 7.80141 8.42627 7.58378 8.67738C7.52803 8.7417 7.41631 8.8889 7.56856 9.1288C7.60641 9.18844 7.63907 9.24955 7.67507 9.31688C7.82006 9.58809 8.01904 9.96031 8.82825 10.7447C9.645 11.5365 10.6697 11.9923 11.0476 12.1439C11.1503 12.2021 11.397 12.2801 11.5626 12.1261C11.6387 12.0552 11.7821 11.872 11.9385 11.6723C12.1221 11.4377 12.3237 11.1801 12.4554 11.0546C12.4594 11.051 12.4635 11.0473 12.4677 11.0434C12.5558 10.9627 12.6954 10.8347 12.9521 10.9374C13.1768 11.0274 14.0392 11.4424 14.6905 11.7559C14.8186 11.8175 14.9385 11.8752 15.0438 11.9257C15.1474 11.9586 15.2977 12.0794 15.2977 12.3217C15.2977 12.8682 14.9108 14.4865 13.0302 14.52C11.1496 14.5534 8.88437 13.5699 7.16036 11.6687C5.37395 9.6986 4.84381 8.38163 4.84381 7.17855C4.84381 5.71056 5.8706 4.92179 6.52911 4.92179C6.5569 4.92179 6.58467 4.92155 6.61236 4.92131Z" fill="#3C8B84"/>
</g>
<defs>
<clipPath id="clip0_149_3506">
<rect width="20" height="20" fill="white"/>
</clipPath>
</defs>
</svg>
